<?xml version="1.0" encoding="utf-8"?>
<!-- Generator: Adobe Illustrator 28.1.0, SVG Export Plug-In . SVG Version: 6.00 Build 0)  -->
<svg version="1.1" id="Layer_1" xmlns="http://www.w3.org/2000/svg" xmlns:xlink="http://www.w3.org/1999/xlink" x="0px" y="0px"
	 viewBox="0 0 958.15 191.81" style="enable-background:new 0 0 958.15 191.81;" xml:space="preserve">
<style type="text/css">
	.st0{fill:none;}
	.st1{fill:#969595;}
	.st2{fill:#414042;}
	.st3{fill:#212123;}
	.st4{clip-path:url(#SVGID_00000003078919613939907630000017848466794458520994_);}
	.st5{opacity:0.49;fill:#FECF09;}
	.st6{fill:#FECF09;}
	.st7{opacity:0.55;fill:#FECF09;}
	.st8{fill-rule:evenodd;clip-rule:evenodd;fill:#FECF09;}
	.st9{fill-rule:evenodd;clip-rule:evenodd;fill:#FFFFFF;}
	.st10{fill:#5E240C;}
	.st11{fill-rule:evenodd;clip-rule:evenodd;fill:none;stroke:#FECF09;stroke-width:2;stroke-miterlimit:10;}
	.st12{fill:#FFFFFF;}
	.st13{fill:#D05C27;}
</style>
<g>
	<path class="st0" d="M660.68,106.76c7.06,10.87,12.27,22.9,15.48,35.74l1.48,5.95c0.72,2.9,3.31,4.93,6.29,4.96l7.42,0.06
		l2.86,0.02l13.24,0.1l2.86,0.02l7.42,0.06c2.98,0.02,5.6-1.98,6.37-4.86l1.57-5.92c3.4-12.79,8.79-24.74,16.02-35.51
		c6.6-9.83,14.49-24.16,14.58-36.56c0.23-30.22-24.17-55-54.4-55.23c-30.22-0.23-55,24.17-55.23,54.4
		C646.55,82.39,654.22,96.83,660.68,106.76z"/>
	<g>
		<polygon class="st1" points="681.49,152.26 710.53,152.49 721.56,152.57 723.65,154.44 723.62,158.31 720.82,160.81 
			723.57,163.95 723.55,167.15 720.75,170.32 723.51,173.12 724.16,175.99 722.69,178.25 720.34,180.26 717.76,184.19 714.23,185.6 
			712.03,188.11 709.91,190.11 706.45,191.51 701.64,191.81 696.51,191.27 692.82,190.33 690.23,187.69 688.98,185.66 684.9,183.94 
			682.79,180.56 680.06,177.85 679.05,174.68 680.11,171.03 682.28,170.54 680.69,168.07 679.11,166.05 679.81,162.63 
			681.84,161.19 682.94,160.44 680.2,159.24 679.18,157.13 679.2,154.52 		"/>
		<path class="st2" d="M679.81,162.63l-0.7,3.43l1.58,2.02l1.58,2.47l-2.16,0.49l-1.07,3.66l1.01,3.16l2.73,2.71l2.11,3.38
			l4.08,1.71l1.25,2.03l2.59,2.64l3.7,0.94l5.13,0.54l4.8-0.3c0,0,1.18-0.16,1.18-0.48c0.24-32.1-24.69-30.59-24.69-30.59l0,0
			l-1.1,0.75L679.81,162.63z"/>
		<path class="st3" d="M701.45,184.85c-11.18-0.08-14.7-0.71-16.41-2.9l32.87,0.25C716.16,184.36,712.63,184.94,701.45,184.85z"/>
		<path class="st3" d="M722.85,175.05c-0.01,1.5-1.24,2.71-2.74,2.7l-37.2-0.28c-1.5-0.01-2.71-1.24-2.7-2.74
			c0.01-1.5,1.24-2.71,2.74-2.7l37.2,0.28C721.65,172.32,722.86,173.55,722.85,175.05z"/>
		<path class="st3" d="M722.92,165.7c-0.01,1.5-1.24,2.71-2.74,2.7l-37.2-0.28c-1.5-0.01-2.71-1.24-2.7-2.74
			c0.01-1.5,1.24-2.71,2.74-2.7l37.2,0.28C721.72,162.98,722.93,164.21,722.92,165.7z"/>
		<path class="st3" d="M720.25,159.06l-37.2-0.28c-1.5-0.01-2.71-1.24-2.7-2.74c0.01-1.5,1.24-2.71,2.74-2.7l1.7,0.01l33.8,0.26
			l1.7,0.01c1.5,0.01,2.71,1.24,2.7,2.74C722.98,157.86,721.75,159.07,720.25,159.06z"/>
	</g>
	<g>
		<defs>
			<path id="SVGID_1_" d="M660.68,105.36c7.06,10.87,12.27,22.9,15.48,35.74l1.48,5.95c0.72,2.9,3.31,4.93,6.29,4.96l7.42,0.06
				l2.86,0.02l13.24,0.1l2.86,0.02l7.42,0.06c2.98,0.02,5.6-1.98,6.37-4.86l1.57-5.92c3.4-12.79,8.79-24.74,16.02-35.51
				c6.6-9.83,14.49-24.16,14.58-36.56c0.23-30.22-24.17-55-54.4-55.23s-55,24.17-55.23,54.4
				C646.55,80.99,654.22,95.43,660.68,105.36z"/>
		</defs>
		<use xlink:href="#SVGID_1_"  style="overflow:visible;fill:#C26732;"/>
		<clipPath id="SVGID_00000106114299601697311980000006796510479489103507_">
			<use xlink:href="#SVGID_1_"  style="overflow:visible;"/>
		</clipPath>
		<g style="clip-path:url(#SVGID_00000106114299601697311980000006796510479489103507_);">
			<g>
				<polyline class="st5" points="594.55,71.03 691.5,60.75 691.5,53.19 594.55,42.9 				"/>
				<polyline class="st5" points="594.55,69.54 691.5,60.14 691.5,53.8 594.55,44.4 				"/>
				<polygon class="st6" points="594.55,46.21 594.55,67.73 691.5,59.4 691.5,54.53 				"/>
				<polyline class="st7" points="594.55,72.03 594.55,74.5 691.5,62.75 691.5,53.19 594.55,41.44 594.55,43.9 				"/>
				<line class="st7" x1="594.55" y1="69.54" x2="594.55" y2="71.03"/>
				<line class="st7" x1="594.55" y1="44.4" x2="594.55" y2="69.54"/>
				<line class="st7" x1="594.55" y1="42.9" x2="594.55" y2="44.4"/>
			</g>
			<g>
				<polyline class="st5" points="808.82,72.03 711.86,61.75 711.86,54.19 808.82,43.9 				"/>
				<polyline class="st5" points="808.82,70.54 711.86,61.14 711.86,54.8 808.82,45.4 				"/>
				<polygon class="st6" points="808.82,47.21 808.82,68.73 711.86,60.4 711.86,55.53 				"/>
				<polyline class="st7" points="808.82,72.03 808.82,74.5 711.86,62.75 711.86,53.19 808.82,41.44 808.82,43.9 				"/>
				<line class="st7" x1="808.82" y1="70.54" x2="808.82" y2="72.03"/>
				<line class="st7" x1="808.82" y1="45.4" x2="808.82" y2="70.54"/>
				<line class="st7" x1="808.82" y1="43.9" x2="808.82" y2="45.4"/>
			</g>
		</g>
		<g style="clip-path:url(#SVGID_00000106114299601697311980000006796510479489103507_);">
			<g>
				<path d="M707.52,34.66h-11.68l3.7-7.4c0.88-1.76,3.4-1.76,4.28,0L707.52,34.66z"/>
				<path d="M681.66,67.45c0,0.26,0.17,0.48,0.42,0.55c6.41,1.82,5.78,5.92,5.78,5.92l-5.93,71.2c-0.03,0.33,0.23,0.61,0.57,0.61
					h38.05c0.33,0,0.59-0.28,0.57-0.61l-5.93-71.2c0,0-0.63-4.09,5.78-5.92c0.25-0.07,0.42-0.29,0.42-0.55v-4.11
					c0-0.31-0.25-0.57-0.57-0.57h-38.59c-0.31,0-0.57,0.25-0.57,0.57V67.45z"/>
				<rect x="685.15" y="51.74" width="32.42" height="14.05"/>
				<path d="M717.23,51.74H685.5c-0.73,0-1.33-0.6-1.33-1.33v0c0-0.73,0.6-1.33,1.33-1.33h31.74c0.73,0,1.33,0.6,1.33,1.33v0
					C718.56,51.14,717.97,51.74,717.23,51.74z"/>
				<path d="M717.04,49.84h-31.35v-3.02c0-8.66,7.02-15.67,15.67-15.67h0c8.66,0,15.67,7.02,15.67,15.67V49.84z"/>
				<rect x="688.51" y="52.07" class="st8" width="10.06" height="9.3"/>
				<rect x="699.71" y="52.07" class="st8" width="3.17" height="9.3"/>
				<rect x="704.01" y="52.07" class="st8" width="10.2" height="9.3"/>
				<polygon class="st8" points="685.69,62.44 687.38,61.52 687.38,52.07 685.69,52.82 685.69,62.44 				"/>
				<polygon class="st8" points="717.04,62.44 717.04,52.82 715.35,52.07 715.35,61.52 717.04,62.44 				"/>
				<path class="st9" d="M701.52,75.2L701.52,75.2c-1.05,0-1.9,0.85-1.9,1.9v6.47c0,0.16,0.13,0.28,0.28,0.28h1.62h1.62
					c0.16,0,0.28-0.13,0.28-0.28V77.1C703.42,76.05,702.57,75.2,701.52,75.2L701.52,75.2L701.52,75.2z"/>
				<rect x="699.61" y="77.54" class="st10" width="3.85" height="0.35"/>
				<rect x="699.61" y="79.7" class="st10" width="3.85" height="0.35"/>
				<polygon class="st10" points="703.43,82.22 699.58,82.22 699.59,81.87 703.44,81.87 				"/>
				<path class="st9" d="M701.52,97.07L701.52,97.07c-1.05,0-1.9,0.85-1.9,1.9v6.47c0,0.16,0.13,0.28,0.28,0.28h1.62h1.62
					c0.16,0,0.28-0.13,0.28-0.28v-6.47C703.42,97.92,702.57,97.07,701.52,97.07L701.52,97.07L701.52,97.07z"/>
				<rect x="699.61" y="99.4" class="st10" width="3.85" height="0.35"/>
				<rect x="699.61" y="101.57" class="st10" width="3.85" height="0.35"/>
				<polygon class="st10" points="703.43,104.08 699.58,104.08 699.59,103.74 703.44,103.74 				"/>
				<path class="st9" d="M701.52,125.56L701.52,125.56c-1.05,0-1.9,0.85-1.9,1.9v6.47c0,0.16,0.13,0.28,0.28,0.28h1.62h1.62
					c0.16,0,0.28-0.13,0.28-0.28v-6.47C703.42,126.41,702.57,125.56,701.52,125.56L701.52,125.56L701.52,125.56z"/>
				<rect x="699.61" y="127.89" class="st10" width="3.85" height="0.35"/>
				<rect x="699.61" y="130.06" class="st10" width="3.85" height="0.35"/>
				<polygon class="st10" points="703.43,132.58 699.58,132.58 699.59,132.23 703.44,132.23 				"/>
				<path class="st11" d="M692.53,73.84l-7.48,70.57L692.53,73.84z"/>
			</g>
			<path d="M733.42,163.29h-63.74l3.8-17.18c0.25-1.12,1.25-1.93,2.4-1.93h50.8c1.12,0,2.11,0.76,2.38,1.85L733.42,163.29z"/>
			<g>
				<path class="st12" d="M701.55,156.16L701.55,156.16c-1.05,0-1.9,0.85-1.9,1.9v6.47c0,0.16,0.13,0.28,0.28,0.28h1.62h1.62
					c0.16,0,0.28-0.13,0.28-0.28v-6.47C703.45,157.02,702.6,156.16,701.55,156.16L701.55,156.16z"/>
			</g>
		</g>
	</g>
</g>
<path class="st13" d="M913.08,38.68v67.14v17.88c0,3,0.08,6.1,0.24,9.29c0.16,3.2,0.37,6.3,0.61,9.29
	c-1.38-2.99-2.81-6.05-4.31-9.17c-1.5-3.11-3.22-6.25-5.16-9.41l-5.56-9.04l-0.17-0.27l-2.97-4.82l-0.14-0.24l-3.58-5.81l-0.13-0.21
	l-35.62-57.89l-0.11-0.18l-2.72-4.41l-0.12-0.21l-2.18-3.54l-0.14-0.22l-13.95-22.67h-41.4v38.43v39.26v94.84h31.69V95.64V77.2
	c0-3.16-0.08-6.31-0.24-9.47c-0.17-3.16-0.41-6.35-0.73-9.59c1.29,3.24,2.73,6.42,4.31,9.53c1.58,3.12,3.38,6.3,5.4,9.53
	l12.88,21.01l0.13,0.21l3.12,5.09l0.14,0.24l2.59,4.22l0.16,0.26l48.12,78.49h41.41v-77.15V34.93v-6.55v-5.26v-8.93h-31.57V38.68z"
	/>
<path class="st13" d="M133.33,122.79c-1.04-2.33-2.29-4.52-3.76-6.56c-1.07-1.54-2.28-2.99-3.6-4.36c-0.19-0.21-0.39-0.41-0.59-0.61
	c-1.69-1.69-3.51-3.23-5.48-4.63h0c-1.94-1.39-4.02-2.64-6.24-3.75c-4.45-2.22-9.22-3.82-14.32-4.79c3.88-1.38,7.61-3.2,11.17-5.47
	c3.56-2.26,6.68-4.96,9.35-8.07c2.67-3.12,4.79-6.7,6.37-10.75c1.58-4.04,2.37-8.54,2.37-13.48c0-6.26-1.3-11.98-3.9-17.14
	c-0.35-0.71-0.74-1.41-1.14-2.1c-0.73-1.24-1.53-2.44-2.42-3.6c-1.26-1.69-2.7-3.3-4.28-4.81c-2.33-2.24-4.99-4.29-7.99-6.16
	c-6.44-4.01-14.41-7.06-23.92-9.17c-9.51-2.1-20.42-3.15-32.72-3.15c-6.07,0-12.17,0.12-18.28,0.36
	c-6.11,0.24-12.56,0.57-19.36,0.97v22.71v73.13v76.7c5.58,0.24,11.25,0.5,17,0.79c5.74,0.28,11.61,0.42,17.6,0.42
	c14.09,0,26.55-1.15,37.4-3.46c10.84-2.31,19.95-5.71,27.32-10.2c7.36-4.49,12.93-9.96,16.69-16.39c3.77-6.44,5.65-13.78,5.65-22.04
	C136.25,131.92,135.28,127.12,133.33,122.79z M94.36,63.6c0,3.73-0.81,7.09-2.42,10.08c-1.62,3-3.98,5.53-7.09,7.59
	c-3.11,2.06-6.9,3.64-11.38,4.73c-4.48,1.1-9.63,1.64-15.44,1.64H47.01V41.25h9.81c5.97,0,11.28,0.51,15.92,1.52
	c4.64,1.01,8.56,2.49,11.75,4.43c3.19,1.94,5.63,4.31,7.33,7.1C93.51,57.1,94.36,60.19,94.36,63.6z M99.1,147.69
	c-1.94,3.11-4.74,5.74-8.42,7.89c-3.67,2.14-8.2,3.78-13.57,4.91c-5.37,1.14-11.45,1.7-18.23,1.7H53c-1.98,0-3.98-0.08-5.99-0.24
	v-48.2h13.08c4.69,0,9.03,0.27,13.02,0.8c1.64,0.21,3.21,0.47,4.73,0.78c3.95,0.8,7.42,1.86,10.41,3.19
	c0.96,0.43,1.87,0.88,2.73,1.36c3.56,1.98,6.28,4.43,8.18,7.35c1.9,2.91,2.85,6.19,2.85,9.83
	C102.01,141.02,101.04,144.56,99.1,147.69z"/>
<polygon class="st13" points="199.87,42.11 266.05,42.11 266.05,14.19 166.12,14.19 166.12,41.8 166.12,102.69 166.12,186.72 
	266.05,186.72 266.05,158.79 199.87,158.79 199.87,113.38 261.07,113.38 261.07,98.43 261.07,85.46 199.87,85.46 199.87,43.32 "/>
<path class="st13" d="M420.24,100.45c-0.12-0.4-0.24-0.79-0.37-1.19c-0.33-1.09-0.66-2.17-1.01-3.25c-0.4-1.31-0.81-2.62-1.23-3.93
	c-4.24-13.5-8.75-26.92-13.53-40.27c-0.5-1.38-1-2.77-1.5-4.15c-0.41-1.15-0.83-2.3-1.25-3.44c-3.68-10.05-7.51-20.07-11.49-30.03
	h-41.89c-3.46,8.8-6.81,17.64-10.06,26.5c-0.44,1.21-0.88,2.41-1.31,3.62c-0.54,1.46-1.06,2.92-1.59,4.39
	c-5.67,15.83-11.02,31.77-16.02,47.81c-0.42,1.31-0.82,2.63-1.23,3.94c-0.07,0.23-0.14,0.47-0.21,0.7c-0.4,1.29-0.79,2.58-1.18,3.86
	c-8.34,27.55-15.15,54.79-20.44,81.71h33.75c1.05-5.66,2.18-11.39,3.4-17.18c1.21-5.79,2.54-11.64,4-17.55h63.01
	c1.46,5.91,2.78,11.76,3.96,17.55c1.17,5.79,2.29,11.52,3.34,17.18h34.6C436.4,158.31,429.15,129.55,420.24,100.45z M343.74,124.55
	c1.92-7.18,3.94-14.31,6.08-21.4c0.37-1.23,0.74-2.46,1.12-3.69c0.45-1.49,0.92-2.97,1.38-4.45h0.01c0.95-3.05,1.93-6.1,2.93-9.13
	c3.98-12.07,8.1-23.97,12.37-35.71c0.24-0.67,0.48-1.33,0.72-1.99c0.27,0.69,0.53,1.37,0.79,2.06c4.49,11.72,8.67,23.6,12.53,35.64
	c0.82,2.56,1.63,5.13,2.43,7.71c0.43,1.37,0.86,2.74,1.27,4.12h0.01c0.35,1.14,0.69,2.27,1.03,3.41c2.35,7.76,4.6,15.57,6.75,23.43
	H343.74z"/>
<path class="st13" d="M599.36,145.19c-3.16,2.91-6.34,5.46-9.54,7.64c-3.2,2.19-6.57,4.01-10.13,5.47
	c-3.57,1.46-7.27,2.55-11.12,3.28c-3.84,0.73-7.91,1.09-12.2,1.09c-7.77,0-14.75-1.4-20.94-4.19c-6.19-2.79-11.41-6.82-15.66-12.08
	c-4.25-5.26-7.53-11.6-9.84-19c-2.31-7.41-3.46-15.73-3.46-24.95c0-0.69,0.01-1.38,0.02-2.06c0.02-1,0.05-1.99,0.1-2.96
	c0.05-1.22,0.13-2.41,0.23-3.58c0.55-6.4,1.72-12.22,3.54-17.45c1.99-5.76,4.54-10.79,7.65-15.07c0.85-1.18,1.75-2.31,2.68-3.37
	h0.01c0.07-0.09,0.14-0.17,0.22-0.26c0.77-0.86,1.57-1.69,2.39-2.47c3.88-3.77,8.24-6.69,13.09-8.76c5.87-2.5,12.08-3.76,18.64-3.76
	c6.63,0,13.11,1.15,19.42,3.46c6.32,2.31,12.19,5.69,17.61,10.14l8.13-26.84c-6.23-5.17-13.33-9.02-21.3-11.53
	c-7.98-2.51-16.66-3.76-26.05-3.76c-7.36,0-14.49,0.85-21.37,2.55c-6.88,1.7-13.31,4.25-19.3,7.64c-5.99,3.4-11.46,7.65-16.39,12.75
	c-4.52,4.67-8.46,9.98-11.81,15.93c-0.33,0.55-0.64,1.11-0.94,1.68c-0.23,0.43-0.46,0.86-0.66,1.29c-0.63,1.18-1.21,2.39-1.76,3.63
	c-2.42,5.34-4.37,11.14-5.84,17.42c-1.35,5.76-2.23,11.87-2.65,18.34c-0.07,1.24-0.13,2.51-0.18,3.78
	c-0.03,1.03-0.06,2.07-0.07,3.12c-0.01,0.56-0.01,1.14-0.01,1.71c0,13.52,1.9,25.68,5.7,36.49c3.81,10.81,9.21,20.02,16.21,27.62
	c7,7.61,15.4,13.46,25.2,17.55c9.79,4.09,20.68,6.13,32.66,6.13c11.09,0,21.2-1.66,30.35-4.98c9.15-3.32,17.57-8.01,25.26-14.08
	L599.36,145.19z"/>
</svg>
