<?xml version="1.0" encoding="utf-8"?>
<!-- Generator: Adobe Illustrator 28.1.0, SVG Export Plug-In . SVG Version: 6.00 Build 0)  -->
<svg version="1.1" id="Layer_1" xmlns="http://www.w3.org/2000/svg" xmlns:xlink="http://www.w3.org/1999/xlink" x="0px" y="0px"
	 viewBox="0 0 1920 1080" style="enable-background:new 0 0 1920 1080;" xml:space="preserve">
<style type="text/css">
	.st0{fill:#FDFDFD;}
	.st1{fill:#223368;}
	.st2{fill:#F07425;}
	.st3{fill:#233467;}
	.st4{fill:#223367;}
	.st5{fill:#ED772A;}
	.st6{fill:#5B5B5D;}
	.st7{fill:#5C5C5E;}
	.st8{fill:#58575B;}
	.st9{fill:#2E3A5B;}
	.st10{fill:#424243;}
	.st11{fill:#EFEFEF;}
</style>
<path class="st0" d="M887.75,650.94l0.22-0.2l-0.1-0.27c3.47-7.28,6.79-14.64,10.5-21.8c1.61-3.12,0.75-4.4-2.21-5.4
	c-2.76-0.94-5.43-2.18-8.14-3.28c-0.24-0.23-0.43-0.54-0.71-0.67c-51.31-23.78-102.63-47.54-153.95-71.3
	c-0.68-0.31-1.42-0.99-2.21,0c0.09,0.44,0.12,0.94,0.28,1.4c12.71,34.81,25.4,69.63,38.17,104.42
	c9.56,26.05,19.21,52.07,28.82,78.11c7.47,20.75,14.94,41.5,22.91,63.65c1.38-3.57,2.15-5.55,2.92-7.53c0,0-0.05,0.05-0.05,0.05
	c0.36-0.53,0.8-1.03,1.07-1.6c13.92-30.05,27.86-60.09,41.65-90.2c0.9-1.97,2.65-3.84,2.09-6.35c0.16-0.23,0.2-0.47,0.13-0.74
	c4.51-4.96,6.16-11.38,8.8-17.29c3.49-6.39,6.52-13,9.14-19.8C887.31,651.74,887.53,651.34,887.75,650.94z M736.17,635.82l0.05,0.05
	c-4.11-12.73-8.59-25.33-13.86-37.64l0.01-0.26c-5.07-14.14-10.14-28.27-15.66-43.67c-6.49,14.88-13.6,27.8-18.82,41.58l0.05-0.06
	c-8.25,15.67-15.1,32.02-22.6,48.04c-5.91,12.62-12.32,25.02-17.36,38.04l0.03-0.05c-3.22,5.73-6.2,11.58-8.24,17.86l0.04-0.03
	c-4.37,6.86-6.71,14.71-10.54,21.83c-1.31,2.44-0.94,3.53,1.72,4.74c15.42,6.99,30.73,14.22,46.1,21.33
	c11.64,5.39,23.01,11.38,34.96,16.11c11.04,5.07,22.09,10.15,33.13,15.22c17.32,8.26,34.63,16.52,53,25.28
	c-2.17-6.02-3.78-10.49-5.41-14.96c-0.11-0.29-0.4-0.51-0.61-0.77c-2.01-5.8-3.94-11.64-6.06-17.4
	c-8.73-23.72-17.52-47.42-26.29-71.12c-5.25-14.33-10.51-28.66-15.76-42.99c-0.1-0.34-0.2-0.67-0.3-1.01
	C741.41,649.17,739.27,642.31,736.17,635.82z M944.08,530.11c1.12-1.13,1.74-2.49,1.84-4.08c0.2-0.24,0.26-0.5,0.18-0.8
	c6.04-10.69,10.9-21.93,15.67-33.21c0.27-0.42,0.6-0.81,0.81-1.25c11.12-24.01,22.16-48.05,33.41-72.01
	c1.46-3.1-0.21-3.68-2.29-4.64c-14.81-6.82-29.59-13.7-44.41-20.5c-21.46-9.86-42.95-19.67-64.43-29.51
	c-18.66-9.28-37.62-17.92-56.73-26.23l0.06,0.05c-5.2-2.54-10.44-5.01-15.6-7.64c-2.25-1.15-2.81,0.09-3.59,1.8
	c-2.81,6.2-5.8,12.32-8.62,18.51c-8.12,17.81-16.19,35.64-24.28,53.47c-0.71,1.3-1.49,2.56-2.1,3.9
	c-15.89,34.35-31.76,68.7-47.65,103.05c-2.61,5.64-2.63,5.63,3.71,7.92c1.6,0.87,3.15,1.82,4.8,2.58
	c24.78,11.49,49.57,22.98,74.37,34.42c10.22,4.71,20.51,9.29,30.76,13.93c22.76,10.6,45.52,21.18,68.24,31.86
	c2.01,0.94,2.93,0.61,3.78-1.31c4.67-10.48,9.39-20.92,14.1-31.38c6.46-12.78,12.51-25.74,17.96-38.98L944.08,530.11z M615.6,492.81
	c0.77-2.04,0.3-3.47-1.83-4.39c-6-2.6-12.54-2.81-18.77-4.37c-0.36,0.08-0.66-0.03-0.88-0.32c-0.19-1.24,0.38-2.91-1.26-3.46
	c-4.86-1.63-9.37-4.52-14.78-4.23c-7.29-2.33-13.9-6.2-20.82-9.36c-3.94-1.8-5.6-1.14-7.43,2.85
	c-20.02,43.72-40.2,87.37-60.49,130.97c-1.51,3.25-0.53,4.23,2.27,5.49c10.88,4.89,21.68,9.97,32.49,15.03
	c32.76,15.34,65.53,30.67,98.26,46.08c3.1,1.46,4.54,0.98,5.97-2.37c6.74-15.85,14.16-31.43,21.48-46.99
	c7.6-16.15,15.23-32.31,23.02-48.38c5.63-11.63,11.07-23.35,16.39-35.12c0.8-1.77,3.4-4.35,0.17-5.98
	c-3.05-1.55-5.76-4.05-9.46-4.21c-0.43-0.48-0.77-1.16-1.31-1.41c-14.75-6.77-29.6-13.31-44.23-20.33
	C628.09,499.27,621.21,497.26,615.6,492.81z M567.78,307.86l0.05-0.04c-3.62,5.9-6.18,12.33-9.05,18.59
	c-8.19,17.87-16.31,35.77-24.46,53.66c-5.71,12.16-11.33,24.37-17.22,36.46c-1.32,2.7-0.18,3.4,1.89,4.34
	c11.03,5.03,21.98,10.21,33.02,15.2c17.68,7.99,35,16.77,52.97,24.12c0.83,0.52,1.62,1.13,2.51,1.54
	c20.99,9.73,41.98,19.43,62.98,29.14c4.74,2.19,9.47,4.39,15.3,7.09c-9.47-25.27-18.51-49.4-27.55-73.52l0.1-0.23l-0.18-0.18
	c-2.86-9.04-5.84-18.04-9.89-26.64c-0.19-0.96-0.26-1.96-0.59-2.87c-15.2-41.45-30.42-82.89-45.64-124.32
	c-2.4-6.55-4.83-13.08-7.73-20.91c-3.82,8.69-7.08,16.07-10.33,23.46C578.08,284.23,572.6,295.89,567.78,307.86z M720.3,464.29
	c3.63-6.54,6.77-13.3,9.46-20.27c1.34-2.67,2.75-5.31,4-8.03c17.22-37.32,34.35-74.69,51.74-111.94c1.77-3.8,1.36-5.19-2.41-6.92
	c-45.96-21.13-91.83-42.43-137.74-63.67c-8.36-3.87-16.76-7.65-25.16-11.48c-0.83,1.78,0.07,2.75,0.44,3.77
	c11.85,32.51,23.71,65.01,35.62,97.5c8.07,22,16.21,43.98,24.32,65.97c0.19,0.38,0.38,0.76,0.57,1.14c0.15,0.56,0.3,1.12,0.45,1.68
	c0.46,2,1.04,3.96,2.29,5.64l0.11,0.37c3.63,10.31,7.21,20.65,10.92,30.94c4.66,12.92,9.44,25.8,14.61,39.93
	c3.95-8.98,7.39-16.82,10.84-24.66L720.3,464.29z M1253.1,577.91c1.46-5.69,6.25-6.43,10.88-6.87c2.46-0.24,3.34-1.02,2.96-3.27
	c-0.42-2.5,1.48-5.96-1.09-7.3c-2.26-1.18-5.03,0.9-7.33,2.23c-1,0.58-1.92,1.31-2.87,1.97c-0.7,0.48-1.91,0.98-1.97-0.06
	c-0.36-6.29-5.06-2.8-7.79-3.5c-3.11-0.8-3.92,0.9-3.88,3.86c0.14,9.98,0.05,19.96,0.05,29.94c0,9.67,0.01,9.67,9.91,9.03
	c1.81-0.21,1.3-1.65,1.3-2.68C1253.25,593.48,1253.17,585.69,1253.1,577.91z M1176.25,588.17c-0.02-5.38-0.04-10.76-0.06-16.15
	c1.76-1.91,4.06-1.03,6.13-1.09c5.4-0.14,2.07-4.18,2.8-6.33c0.72-2.15,0.06-4.09-2.9-3.56c-5.21,0.95-6.09-1.75-5.65-6.14
	c0.18-1.79,1.22-4.74-1.1-5.32c-2.95-0.73-6.4-0.73-9.32,0.09c-2.1,0.59-0.64,3.56-0.99,5.43c-0.12,0.64-0.07,1.33,0.02,1.99
	c0.39,2.92-0.55,4.42-3.79,3.93c-3.9-0.58-3.32,2.35-3.15,4.53c0.16,2.08-1.61,5.69,2.84,5.27c3.96-0.38,4.21,1.68,4.12,4.73
	c-0.17,5.64-0.08,11.29-0.03,16.94c0.09,10.57,9.72,16.18,19.29,11.34c1.88-0.95,2.54-2.21,1.61-3.95
	c-0.96-1.79,0.18-5.67-3.12-5.11C1177.06,595.8,1176.72,592.15,1176.25,588.17z M1040.37,723.5c-11.91-0.1-23.81-0.25-35.72-0.29
	c-8.12-0.03-6.17-0.62-6.6,6.54c-0.22,3.75,0.89,5.06,4.65,4.63c3.1-0.36,6.27-0.19,9.41-0.25c0.85,0.01,1.7,0.02,2.56,0.03
	l0.14,0.08c0.87,13.08,0.21,26.18,0.37,39.27c0.11,8.82,0.02,8.64,8.88,8.85c3.52,0.08,4-1.21,3.96-4.3
	c-0.16-12.94-0.08-25.88-0.03-38.81c0.01-1.74-0.69-3.7,1.05-5.11c0.34-0.01,0.69-0.01,1.03-0.02c0.62-0.01,1.23-0.01,1.85-0.02
	c3.47,0.08,6.95,0.19,10.42,0.22c0.93,0.01,2.58,0.37,2.58-0.7c-0.02-3.39,1.68-7.04-1.12-10.12
	C1042.65,722.93,1041.51,723.11,1040.37,723.5z M1218.93,780.92c-0.09,0.8,0.24,1.19,1.06,1.09c2.65-0.02,5.31-0.04,7.96-0.05
	c0.34-0.01,0.67-0.02,1.01-0.03c0.32-0.32,0.91-0.63,0.91-0.95c0.04-10.48,0.26-20.96-0.08-31.43c-0.19-5.97-3.97-9.64-9.81-10.95
	c-7.04-1.58-12.99,0.93-19.03,5.6c0.9-5.1-1.76-5.53-5.1-5.17c-1.64,0.17-3.29,0.21-4.94,0.3c-0.92,0.19-1.08,0.82-0.98,1.63
	c0,12.98-0.01,25.97-0.01,38.95c-0.2,0.98-0.52,2.03,1.07,2.1c2.66-0.02,5.32-0.05,7.97-0.07c0.33-0.03,0.65-0.05,0.98-0.08
	c1.87-0.93,0.91-2.63,0.93-3.95c0.1-7.27,0.17-14.54-0.01-21.81c-0.07-2.69,1.05-4.29,3.11-5.68c6.22-4.19,12.19-2.42,15,4.52
	c0.01,0.33,0.02,0.66,0.03,0.99C1218.98,764.26,1218.96,772.59,1218.93,780.92z M1314,675.05c0.64,0.01,1.28,0.02,1.92,0.03
	c1.89,0.37,2.02-0.63,1.61-2.06c0.59-9.98-4.05-18.34-12.22-21.99c-8.51-3.8-18.87-1.76-25.26,4.97c-7.97,8.4-8.03,23.12-0.13,31.38
	c7.59,7.93,25.61,9.09,33.22,2.17c0.8-0.72,1.34-1.25,0.93-2.47c-1.28-3.79-4.6-5.31-8.18-3.62c-7.49,3.52-15.83,1.48-18.84-4.54
	c-0.82-1.65-1.44-3.05,0.93-3.83C1296.65,675.07,1305.32,675.06,1314,675.05z M1098.02,586.05c0.98,0.01,1.95,0.02,2.93,0.03
	c0.35-0.01,0.7-0.03,1.05-0.04c0.78-0.08,1.09-0.54,1.16-1.29c0.96-9.84-4.62-19.56-13.23-23.02c-9-3.62-19.89-0.84-25.7,6.56
	c-6.1,7.76-6.51,19.69-0.95,27.5c6.72,9.44,20.37,12.14,32.34,6.23c1.69-0.83,5.42-1.1,3.19-4.54c-1.52-2.34-2.27-6.81-7.15-3.47
	c-3.35,2.29-7.49,2.66-11.54,1.75c-5.06-1.14-8.07-4.77-8.11-9.61C1080.69,586.12,1089.35,586.09,1098.02,586.05z M1085.09,762.96
	c0.81-2.16,0.06-4.3-0.24-6.38c-1.3-8.97-7.26-15.67-15.41-17.64c-9.3-2.25-18.54,1.03-23.8,8.47c-6.51,9.19-5.18,22.89,2.92,30.06
	c7.88,6.98,24.35,7.59,31.72,1.35c2.16-1.83,1.28-3.18-0.16-4.46c-1.39-1.24-1.2-5.27-4.85-2.88c-3,1.97-6.4,2.79-9.95,2.7
	c-6.72-0.17-10.94-3.95-11.27-9.94c9.1,0.03,18.19,0.1,27.29,0.06C1082.66,764.27,1084.43,765.05,1085.09,762.96z M1203.98,586.07
	c4.34,0,8.69,0.01,13.03,0.01c2.3,0.42,4.61,0.43,6.91-0.01c3.04,0.02,6.08,0.04,9.12,0.06c0.71-0.03,1.27-0.2,1.4-1.05
	c1.54-10.02-5.33-21.07-14.9-23.95c-10.7-3.21-22.01,1.56-26.63,11.22c-4.33,9.07-2.46,20.36,4.44,26.77
	c7.36,6.84,21.08,8.04,30.38,2.5c1.42-0.85,4.76-1.6,2.36-4.11c-1.62-1.69-1.35-6.99-6.64-3.79c-5.34,3.23-11.49,3.95-16.86-0.38
	C1204.51,591.68,1201.4,589.7,1203.98,586.07z M1148.06,723.39c-2.47-0.11-4.95-0.22-7.42-0.32c-1.85-0.08-2.63,0.71-2.63,2.66
	c0.05,17.93,0.05,35.85,0,53.78c-0.01,2.21,0.75,3.11,2.96,2.44c0.34,0.01,0.68,0.01,1.02,0.02c1.33-0.01,2.65-0.01,3.98-0.02
	c2.13,0.49,3.4,0.26,3.32-2.55c-0.22-8.48-0.18-16.97-0.24-25.45c1.02-1.07,1.91-2.33,3.09-3.18c3.41-2.47,7.27-3.41,11.23-1.69
	c3.89,1.7,3.75,5.4,3.72,8.95c-0.05,5.78-0.15,11.57,0.05,17.35c0.08,2.15-1.18,4.57,0.85,6.48c0.33,0.03,0.66,0.07,0.98,0.1
	c2.65,0.03,5.31,0.05,7.96,0.08c1.06-0.07,1.35-0.76,1.34-1.68c-0.09-10.14-0.18-20.29-0.27-30.43c-0.54-6.51-3.18-9.72-9.14-11.21
	c-5.84-1.46-11.3-0.27-15.99,3.15c-3.26,2.37-3.59,0.87-3.82-1.88C1148.7,734.45,1150.65,728.78,1148.06,723.39z M1405.83,739.98
	c-6.41-2.34-10.23-1.24-11.74,3.36c-5.97-4.67-9.72-5.91-15-4.96c-9.31,1.68-14.76,7.97-15.95,18.45
	c-1.24,10.88,3.36,20.59,11.6,23.85c7.37,2.92,13.98,1.35,19.63-4.56c1.2,8.14-1.9,12.86-8.79,13.55c-4.54,0.45-9.15,0.1-12.89-2.78
	c-4.82-3.71-4.39,1.84-6.08,3.31c-2.5,2.18-0.77,3.56,1.36,4.86c8.3,5.04,17.08,5.22,25.99,2.37c7.64-2.44,11.91-8.11,12.07-16.03
	c0.28-13.48-0.02-26.96-0.07-40.45C1405.91,740.62,1405.87,740.3,1405.83,739.98z M556.92,663.05c-4.21-0.4-7.45-3.06-11.11-4.74
	c-28.64-13.18-57.28-26.34-85.89-39.59c-5.94-2.75-5.81-2.88-3.11-8.7c18.52-39.86,36.72-79.88,55.72-119.51
	c4.49-9.36,6.46-17.49,1.3-27.03c-3.31-6.11-5.29-12.93-8.31-20.55c-7.52,16.19-14.45,31.04-21.31,45.92
	c-20.15,43.7-40.27,87.41-60.41,131.11c-4.71,2.08-3.98,6.23-3.8,10.11c0.19,4.12,3.85,2.95,6.08,4.17
	c3.56,1.95,9.31,0.73,10.42,6.69c0.24,1.3,1.99,1.3,2.93,0.52c1.22-1.02,2.49-1.56,4.03-1.62c9.39,4.13,18.85,8.11,28.15,12.43
	c37.71,17.52,75.37,35.17,113.06,52.73c6.65,3.1,13.38,6.03,21.31,9.59c-4.25-11.66-8.02-22.02-11.8-32.37
	c-0.5-1.38-1.7-1.88-2.94-2.46c-8.4-3.94-16.77-7.96-25.14-11.96C565.53,664.23,561.74,662.27,556.92,663.05z M1173.57,693.18
	c2.25,0,3.76-0.12,5.25,0.03c2.6,0.25,3.23-0.57,2.25-3.07c-6.98-17.81-13.9-35.65-20.79-53.5c-0.58-1.51-1.1-2.65-3.05-2.59
	c-3.83,0.11-7.66,0.08-11.5,0c-1.82-0.04-2.66,0.83-3.28,2.42c-6.95,18-13.95,35.99-20.92,53.99c-0.33,0.86-1.02,2.36,0.31,2.47
	c3.97,0.33,8,0.55,11.95,0.18c2.69-0.25,2.5-3.36,2.99-5.23c1.02-3.85,2.84-5.41,7.01-5.06c5.13,0.43,10.34,0.35,15.48,0.02
	c3.58-0.23,5.75,0.82,6.37,4.41C1166.52,692.22,1169.19,694.5,1173.57,693.18z M998.7,574.68c0.03,6.93,1.71,12.45,5.45,17.82
	c11.27,16.21,37.58,17,48.65,1.41c0.75-1.06,2.84-2.49,1.04-3.72c-2.56-1.76-5.53-3.09-8.51-4.06c-2.48-0.81-3,2.14-4.4,3.34
	c-2.48,2.12-5.15,3.63-8.35,4.19c-9.44,1.66-18.76-4.97-20.6-14.62c-2.03-10.7,3.93-20.96,13.38-23.05
	c5.53-1.23,11.17-0.91,14.77,3.55c3.69,4.57,6.61,3.12,10.77,1.29c4.21-1.85,3.73-3.48,1.37-6.42c-7.73-9.63-20.9-12.88-34.05-8.21
	C1006.19,550.49,998.65,561.47,998.7,574.68z M1260.89,783.22c13.17,0.13,22.87-9.28,23.01-22.33c0.14-12.98-9.52-22.74-22.56-22.79
	c-13.23-0.05-22.95,9.39-23.01,22.35C1238.27,773.53,1247.73,783.08,1260.89,783.22z M1457.62,739.47
	c-11.54-1.3-11.55-1.3-15.45,8.68c-2.47,6.34-4.89,12.7-7.84,20.39c-3.17-8.45-6.27-15.29-8.26-22.43
	c-1.64-5.9-4.54-7.75-10.55-7.22c-4.1,0.36-4.24,1.16-2.82,4.55c4.95,11.81,9.65,23.73,14.4,35.62c1.95,4.88-0.27,10.08-4.74,9.63
	c-6.56-0.66-5.51,3.84-6.28,7.34c-0.41,1.85,0.45,2.56,2.35,2.91c8.39,1.55,15.82-2.2,19.12-10.05c2.9-6.9,5.62-13.87,8.43-20.81
	C1449.83,758.59,1453.7,749.1,1457.62,739.47z M1020.88,694.13c13.26,0.14,22.87-9.12,23.05-22.21
	c0.18-12.97-9.46-22.75-22.48-22.83c-13.22-0.08-22.88,9.24-23.07,22.29C998.17,684.42,1007.64,693.99,1020.88,694.13z
	 M1333.99,783.14c13.16,0.11,22.81-9.03,22.93-21.72c0.14-13.64-9.2-23.36-22.44-23.36c-13.21,0-22.81,9.34-23,22.38
	C1311.29,773.45,1320.79,783.02,1333.99,783.14z M1123.01,566.12c0.81-4.75-1.25-5.51-4.37-5.11c-1.15,0.15-2.34,0.11-3.49,0
	c-2.22-0.21-3.31,0.38-3.29,2.94c0.1,12.48,0.09,24.97-0.01,37.45c-0.02,2.27,0.85,2.92,2.92,2.75c1.49-0.12,3.01-0.17,4.49,0
	c3.02,0.36,4.02-0.7,3.9-3.86c-0.26-6.98-0.08-13.98-0.08-20.97c0.01-5.62,3.8-9.13,9.9-9.16c5.47-0.02,7.89,2.7,7.93,9.08
	c0.04,7.16,0.11,14.32-0.04,21.47c-0.05,2.53,0.56,3.74,3.29,3.47c1.81-0.18,3.66-0.09,5.49-0.04c1.54,0.05,2.51-0.27,2.49-2.14
	c-0.13-10.48,0.09-20.98-0.37-31.44c-0.24-5.46-3.72-8.54-9.07-9.85C1135.66,558.99,1129.62,561.22,1123.01,566.12z M1064,655.12
	c1.05-5.03-1.56-5.45-4.88-5.09c-1.15,0.13-2.33,0.12-3.49,0.01c-2.15-0.2-2.86,0.63-2.85,2.83c0.09,12.47,0.07,24.94,0.01,37.41
	c-0.01,2.04,0.4,3.17,2.74,2.9c1.48-0.17,3.01-0.16,4.48,0.05c3.34,0.48,4.21-0.94,4.1-4.14c-0.23-6.98-0.09-13.96-0.07-20.95
	c0.02-5.39,3.64-8.74,9.59-8.93c5.54-0.18,8.14,2.52,8.21,8.78c0.09,6.98,0.23,13.97-0.04,20.94c-0.14,3.53,0.91,4.86,4.42,4.25
	c1.13-0.2,2.34-0.2,3.48-0.02c2.59,0.39,3.5-0.5,3.45-3.2c-0.16-9.47,0.04-18.96-0.17-28.43c-0.15-6.67-3.41-10.41-9.87-11.94
	C1076.09,647.93,1070.16,650.62,1064,655.12z M1342.22,694.16c1.19-0.17,3.7-0.31,6.1-0.9c7.09-1.72,11.33-6.49,11.49-12.62
	c0.16-6.37-2.97-10.39-10.38-12.76c-3.78-1.21-7.72-1.93-11.57-2.93c-1.78-0.46-3.87-0.98-3.68-3.31c0.16-2.06,1.98-2.95,3.84-3.4
	c5.03-1.22,9.62,0.14,13.74,2.89c2.63,1.76,3.33-0.18,3.98-1.74c0.74-1.78,4-3.24,0.76-5.79c-6.77-5.32-20.21-6.13-27.49-1.4
	c-4.06,2.64-6.38,6.33-6.01,11.28c0.37,4.94,3.04,8.24,7.61,10.16c4.19,1.76,8.67,2.25,13.01,3.37c2.33,0.6,5.51,1.03,5.16,4.31
	c-0.35,3.2-3.39,3.93-6.1,4.02c-4.75,0.16-9.4-0.83-13.18-3.78c-4.56-3.55-4.49,1.31-6.15,3.01c-2.42,2.47-1.07,3.93,1.34,5.32
	C1329.73,692.8,1335.17,694.01,1342.22,694.16z M1384.08,694.12c0.96-0.08,2.8-0.11,4.6-0.42c7.88-1.35,12.91-6.24,13.25-12.74
	c0.35-6.9-3.06-11.01-11.45-13.48c-3.5-1.03-7.13-1.61-10.64-2.62c-1.5-0.43-3.55-0.93-3.46-3.01c0.09-2.08,1.86-3.13,3.69-3.58
	c4.8-1.17,9.29,0,13.37,2.5c1.76,1.07,3.2,2.29,4.04-0.55c0.66-2.23,5.02-4.31,0.57-6.93c-8.11-4.78-16.6-5.82-25.3-1.91
	c-4.96,2.23-7.81,6.26-7.56,11.86c0.24,5.43,3.42,8.74,8.38,10.67c4.23,1.65,8.73,2.08,13.04,3.33c2.03,0.59,4.55,1.1,4.36,3.97
	c-0.2,2.92-2.65,3.59-5.01,3.97c-5.41,0.87-10.29-0.88-14.62-3.84c-4.04-2.77-4.14,1.13-5.57,2.83c-1.75,2.08-2.21,3.83,0.77,5.52
	C1371.74,692.65,1377.27,694.05,1384.08,694.12z M1114.78,783.16c4.06,0.1,8.91-0.92,12.85-4.38c1.22-1.07,4.69-2.38,2.25-4.25
	c-2.26-1.74-3.2-7.56-8.34-3.9c-5.33,3.79-11.97,3.02-15.72-1.48c-3.86-4.63-3.81-12.76,0.11-17.09c4.01-4.44,10.64-5.02,15.78-1.23
	c4.94,3.64,5.52-2.24,7.89-3.77c2.61-1.68-0.24-3.04-1.43-4.06c-7.14-6.07-18.8-6.55-27.04-1.22c-8.3,5.37-11.86,15.77-8.86,25.92
	C1095.05,777.12,1103.35,783.11,1114.78,783.16z M1252.04,694.13c4.76-0.07,9.34-0.91,13.02-4.12c1.36-1.19,5.05-2.57,2.52-4.61
	c-2.2-1.77-3.36-7.94-8.71-3.56c-4.47,3.66-11.39,2.7-14.95-1.38c-4.14-4.75-4.18-12.84-0.1-17.47c3.68-4.17,10.13-4.93,14.98-1.77
	c2.89,1.89,6.57,0.73,8.86-3.12c1.87-3.14-1.46-3.93-3.01-5.09c-7.46-5.55-19.35-5.18-27.1,0.6c-7.64,5.7-10.45,16.02-7.09,26.07
	C1233.47,688.72,1241.6,694.17,1252.04,694.13z M1207.72,694.1c5.95,0.06,11.33-1.79,14.7-5.14c0.89-0.88,2.59-1.89,1.5-3.24
	c-1.65-2.04-3.62-3.99-5.82-5.38c-1.82-1.15-2.65,1.42-4.01,2.16c-4.77,2.6-11.25,1.62-14.58-2.42c-3.91-4.74-3.61-13.14,0.62-17.51
	c3.64-3.76,10.53-4.69,14.62-1.25c5.03,4.23,6.24-1.26,8.37-3.13c3.08-2.72-0.8-3.9-2.24-5.02c-7.24-5.65-19.06-5.43-27.12,0.26
	c-7.56,5.34-10.7,15.75-7.69,25.49C1189,688.38,1197.02,694,1207.72,694.1z M1291.86,752.96c0,7.97,0.15,15.94-0.07,23.9
	c-0.1,3.64,0.08,6.05,4.83,5.43c3.44-0.45,6.81,0.86,6.61-5.18c-0.51-15.59-0.17-31.21-0.17-46.81c0-7.34-0.01-7.13-7.46-7.27
	c-3.31-0.06-3.84,1.17-3.79,4.03C1291.94,735.7,1291.84,744.33,1291.86,752.96z"/>
<path class="st1" d="M884.88,364.1c21.48,9.83,42.96,19.65,64.43,29.51c14.82,6.81,29.6,13.68,44.41,20.5
	c2.07,0.95,3.74,1.53,2.29,4.64c-11.24,23.95-22.29,48-33.41,72.01c-0.21,0.45-0.54,0.84-0.81,1.25c-1.9-0.07-2.98,0.32-4.05,2.47
	c-2.13,4.32-3.57,8.95-5.75,13.13c-2.95,5.66-6.42,10.89-5.88,17.62c0.08,0.3,0.02,0.57-0.18,0.8c-2.67,0.43-1.73,2.5-1.84,4.08
	c0,0,0.03-0.04,0.03-0.04c-2.21-0.02-2.41,1.93-3.25,3.27c-5.12,8.16-7.89,17.44-12.05,26.06c-1.28,2.66-4.75,5.7-2.66,9.65
	c-4.71,10.46-9.43,20.91-14.1,31.38c-0.85,1.92-1.78,2.25-3.78,1.31c-22.72-10.68-45.49-21.26-68.24-31.86
	c0.12-2.37-0.75-3.91-3.36-3.86c-1.76,0.03-3.19-0.81-4.68-1.55c-8.17-4.06-16.7-7.42-24.51-12.2
	c-11.82-7.24-25.46-10.42-37.62-17.02c-9.88-5.36-20.36-9.66-30.73-14.07c-2.78-1.18-5.41-4.1-9.04-2.24
	c-6.34-2.29-6.32-2.28-3.71-7.92c15.88-34.35,31.75-68.71,47.65-103.05c0.62-1.34,1.4-2.6,2.1-3.9c4.83-1.68,5.4-6.86,7.48-10.34
	c5.1-8.55,5.83-19.47,14.02-26.53c0.31-0.26,0.33-0.91,0.39-1.39c0.89-7.37,4.49-13.83,7.03-20.63c1.01-2.7,2.86-4.89,3.45-8.01
	c0.74-3.89,5.51-5.07,8.72-2.19c3.36,3.02,6.93,3.5,11,2.95c0,0-0.06-0.05-0.06-0.05c0.22,0.59,0.26,1.47,0.68,1.73
	c7.8,4.92,17.54,6.52,23.88,13.97c0.34,0.4,1.23,0.33,1.86,0.48c7.48,1.78,14.58,4.61,21.4,8.08
	C878.88,363.61,881.72,364.29,884.88,364.1z"/>
<path class="st2" d="M679.95,524.04c3.69,0.16,6.4,2.66,9.46,4.21c3.23,1.64,0.63,4.21-0.17,5.98
	c-5.32,11.77-10.76,23.5-16.39,35.12c-7.79,16.07-15.42,32.24-23.02,48.38c-7.32,15.56-14.74,31.14-21.48,46.99
	c-1.43,3.35-2.87,3.83-5.97,2.37c-32.73-15.41-65.5-30.75-98.26-46.08c-10.81-5.06-21.61-10.14-32.49-15.03
	c-2.8-1.26-3.78-2.24-2.27-5.49c20.28-43.6,40.47-87.25,60.49-130.97c1.83-4,3.49-4.65,7.43-2.85c6.92,3.15,13.53,7.03,20.82,9.36
	c4.87,3.56,10.44,5.66,16.04,7.69c0.23,0.29,0.52,0.4,0.88,0.32c4.43,3.74,10.53,4.29,15.07,7.83c0.38,2.2,1.81,3.65,3.84,4.04
	c6.97,1.32,12.72,5.5,19.2,7.95c4.75,1.8,8.91,4.84,13.45,7.03c8.48,4.1,17.36,7.35,25.89,11.34
	C674.95,523.39,677.26,524.23,679.95,524.04z"/>
<path class="st3" d="M680.57,409.22c-8.11-21.99-16.25-43.97-24.32-65.97c-11.91-32.49-23.77-64.99-35.62-97.5
	c-0.37-1.02-1.27-1.99-0.44-3.77c8.4,3.83,16.8,7.62,25.16,11.48c45.91,21.24,91.79,42.54,137.74,63.67
	c3.77,1.73,4.18,3.12,2.41,6.92c-17.39,37.25-34.51,74.62-51.74,111.94c-1.25,2.71-2.66,5.35-4,8.03
	c-5.78,5.53-9.12,12.2-9.46,20.27c0,0,0.05-0.04,0.05-0.04c-1.47-0.27-1.93,0.6-2.48,1.8c-1.85,4.03-3.93,7.96-5.79,11.99
	c-0.45,0.96-0.7,1.86-1.94,1.87c-0.89,0-1.71-0.24-1.89-1.23c-0.91-4.98-4.29-8.88-5.93-13.49c-4.09-11.54-7.46-23.33-12.18-34.66
	c-1.05-2.52-2.39-4.87-2.32-7.9c0.05-1.96-1.32-4.09-3.84-4.57c0,0-0.11-0.37-0.11-0.37c-0.4-2.03,1.89-5.15-2.29-5.64
	c-0.15-0.56-0.3-1.12-0.45-1.67C680.95,409.98,680.76,409.6,680.57,409.22z"/>
<path class="st3" d="M869.14,689.22c0.07,0.27,0.02,0.51-0.13,0.74c-0.89-0.36-1.79-0.72-2.63-1.05c-0.84,3.41-1.01,7.21-2.68,10.17
	c-3.51,6.25-5,13.45-9.36,19.27c-4.61,6.16-4.53,14.54-9.37,20.48c-3.17,3.89-3.81,8.76-6.27,12.9c-3.9,6.55-6.27,13.89-9.19,20.89
	c-2.07,4.96-6.57,9.35-5.31,15.51c0,0,0.05-0.05,0.05-0.05c-1.49-0.37-3.6,0.51-4.19-1.77c-1.86-7.21-6.39-13.66-6.05-21.51
	c0.16-3.76-0.19-7.3-4.91-8.25c-0.99-0.2-1.06-1.16-1.04-2c0.17-6.23-3.89-11.05-5.7-16.62c-0.7-2.15-1.7-4.6-3.94-5.96
	c-9.61-26.03-19.26-52.05-28.82-78.11c-12.76-34.79-25.45-69.61-38.17-104.42c-0.16-0.45-0.2-0.95-0.28-1.4
	c0.79-0.99,1.53-0.31,2.21,0c51.32,23.75,102.64,47.52,153.95,71.3c0.28,0.13,0.48,0.44,0.71,0.67c-0.16,2.65,1.03,3.74,3.73,4.11
	c2.56,0.36,5.19,2.15,3.77,5c-1.82,3.63-2.53,7.68-4.9,11.11c-2.06,2.97-3.12,6.5-2.74,10.26l0.1,0.27c0,0-0.22,0.2-0.22,0.2
	c-0.22,0.4-0.45,0.8-0.67,1.2c-2.62,6.8-5.65,13.4-9.14,19.8c-1.5,0.08-2.47,0.9-2.99,2.24C873,679.18,871.07,684.21,869.14,689.22z
	"/>
<path class="st3" d="M658.14,424.04l0.18,0.18c0,0-0.1,0.23-0.1,0.23c-0.1,3.89,0.09,7.46,1.6,11.42
	c3.88,10.18,8.68,19.96,11.03,30.9c1.2,5.57,3.82,11.96,7.26,17.37c1.33,2.09,3.5,4.99,1.13,7.27c-2.32,2.23-3.29-1.86-5.26-2.21
	c-9.95-1.75-18.03-7.93-27.23-11.53c-10.45-4.09-20.29-9.73-30.55-14.37c-3.5-1.59-6.82-4.5-11.22-3.1
	c-17.97-7.35-35.29-16.13-52.97-24.12c-11.04-4.99-22-10.17-33.02-15.2c-2.07-0.95-3.21-1.64-1.89-4.34
	c5.88-12.08,11.5-24.29,17.22-36.46c3.07-0.67,3.63-3.6,5.05-5.71c3.37-5.03,3.27-11.57,7.2-16.43c1.4-1.73,3.29-3.21,3.53-5.83
	c0.33-3.53,2.13-6.43,4.45-9.11c1.45-1.68,3.63-3.07,3.51-5.74c-0.2-4.63,1.29-8.86,4-12.4c1.9-2.48,1.04-6.17,4.96-8.07
	c2.25-1.09,1.12-5.82,0.81-8.96c0,0-0.05,0.04-0.05,0.04c4.91,1.09,5.77-2.92,6.1-5.84c0.75-6.61,4.3-11.92,6.88-17.7
	c1.65-3.68,3.77-7.26,3.2-11.56c3.25-7.39,6.5-14.77,10.33-23.46c2.89,7.83,5.32,14.36,7.73,20.91
	c15.22,41.44,30.44,82.88,45.64,124.32c0.33,0.91,0.4,1.91,0.59,2.87c-1.33,4.4,0.63,8.48,2.04,12.26
	C652.17,414.73,653.84,420.18,658.14,424.04z"/>
<path class="st4" d="M722.36,597.97c0,0-0.01,0.26-0.01,0.26c-0.8,5.18,1.1,10.13,3.19,14.33c3.17,6.36,5.64,12.76,6.38,19.71
	c0.34,3.19,1.46,4.06,4.29,3.59c0,0-0.05-0.05-0.05-0.05c-1.41,7.17,3.82,12.59,5.08,19.07c0.22,1.15,1.53,1.03,2.51,1.07
	c0.1,0.34,0.2,0.67,0.3,1.01c-0.73,0.55-1.09,1.28-0.79,2.16c1.57,4.65,3.55,9.21,2.91,14.32c-0.05,0.43,0.2,1.04,0.53,1.34
	c4.83,4.6,5.08,11.19,7.53,16.82c1.29,2.96,1.12,7.37,5.59,8.36c8.77,23.71,17.56,47.4,26.29,71.12c2.12,5.76,4.04,11.6,6.06,17.4
	c-0.47,11.36-0.43,11.24-10.41,5.55c-1.9-1.09,0.47-4.47-3.05-4.06c-8.4,0.97-14.26-5.73-21.78-7.48c-4-0.93-7.24-4.33-11.75-3.57
	c-11.04-5.07-22.09-10.15-33.13-15.22c0-1.85,0.14-3.41-2.59-3.87c-3.34-0.57-6.34-2.2-9.14-4.41c-4.66-3.69-10.92-4.02-16.02-7.29
	c-4.76-3.05-10.53-4.51-15.82-6.74c-2.63-1.1-4.87-5.38-5.51-5.32c-5.25,0.56-8.9-3.54-13.55-3.98c-3.29-0.31-5.18-2.75-7.8-4.03
	c-3.01-1.46-3.95-4.07-1.98-7.28c0.17-0.28-0.68-1.54-1.31-1.91c-4.39-2.57-3.04-5.92-1.54-9.45c1.33-3.13,4.04-5.87,3-9.74
	c0,0-0.04,0.03-0.04,0.03c0.62-0.12,1.5-0.01,1.82-0.39c4.3-5.01,7.04-10.63,6.41-17.47c0,0-0.03,0.05-0.03,0.05
	c3.8-2.6,8.32-4.65,7.45-10.62c-0.15-1.05,0.27-2.37,0.83-3.32c2.73-4.63,5.87-8.94,6.91-14.51c1.4-7.48,9.25-11.79,9.66-20.49
	c0.18-3.76,3.21-8.57,5.34-12.72c1.01-1.96,1.78-5.25,3.18-5.55c2.57-0.55,2.16,3.34,3.56,4.9c1.51-0.99,0.75-1.91,0.59-2.83
	c-0.73-4.36-1.83-8.88,0.82-12.9c1.7-2.59,1.9-5.2,1.62-8.05c0,0-0.05,0.06-0.05,0.06c2.93-2.13,5.23-4.69,6.25-8.29
	c0.71-2.51,0.84-6.62,2.91-7.03c5.64-1.13,4.81-5.21,4.89-8.69c0.07-3.13,2.67-5.26,2.57-8.35c-0.03-0.77,0.97-1.31,1.88-1.33
	c1-0.03,1.51,0.61,1.62,1.51c0.6,5.06,5.4,8.92,4.11,14.54c-0.27,1.19,0.26,2.25,1.39,2.95c1.85,1.14,1.88,3.3,2.78,4.91
	C718.44,590,716.01,596.32,722.36,597.97z"/>
<path class="st5" d="M566.09,667.77c8.38,4,16.74,8.02,25.14,11.96c1.25,0.58,2.44,1.09,2.94,2.46c3.78,10.35,7.55,20.71,11.8,32.37
	c-7.93-3.56-14.66-6.49-21.31-9.59c-37.69-17.56-75.35-35.21-113.06-52.73c-9.3-4.32-18.76-8.29-28.15-12.43
	c-4.26-3.56-9.64-4.94-14.49-7.32c-8.48-4.17-8.59-3.95-5.16-12.55c20.13-43.7,40.26-87.41,60.41-131.11
	c6.86-14.88,13.8-29.73,21.31-45.92c3.02,7.62,5,14.44,8.31,20.55c5.16,9.54,3.19,17.67-1.3,27.03
	c-19,39.63-37.2,79.65-55.72,119.51c-2.7,5.82-2.84,5.95,3.11,8.7c28.61,13.25,57.25,26.41,85.89,39.59
	c3.66,1.68,6.91,4.34,11.11,4.74C559.46,665.62,562.67,666.89,566.09,667.77z"/>
<path class="st6" d="M1173.57,693.18c-4.39,1.31-7.05-0.96-7.91-5.93c-0.62-3.6-2.79-4.64-6.37-4.41
	c-5.14,0.33-10.35,0.41-15.48-0.02c-4.17-0.35-5.99,1.21-7.01,5.06c-0.49,1.87-0.3,4.98-2.99,5.23c-3.95,0.37-7.98,0.15-11.95-0.18
	c-1.33-0.11-0.64-1.61-0.31-2.47c6.97-18,13.96-35.99,20.92-53.99c0.61-1.58,1.46-2.46,3.28-2.42c3.83,0.09,7.67,0.11,11.5,0
	c1.95-0.06,2.47,1.08,3.05,2.59c6.89,17.85,13.81,35.69,20.79,53.5c0.98,2.5,0.35,3.32-2.25,3.07
	C1177.34,693.07,1175.83,693.18,1173.57,693.18z M1151.99,671.98c2.68,1.48,5.34,1.58,7.98-0.09c-1.44-8.4-5.37-15.87-8.61-24.91
	c-2.22,5.86-3.97,10.46-5.71,15.06C1142.16,671.28,1142.16,671.28,1151.99,671.98z"/>
<path class="st6" d="M1405.95,740.95c0.06,13.48,0.35,26.97,0.07,40.45c-0.16,7.92-4.43,13.59-12.07,16.03
	c-8.91,2.84-17.69,2.67-25.99-2.37c-2.13-1.29-3.86-2.68-1.36-4.86c1.69-1.47,1.26-7.01,6.08-3.31c3.74,2.87,8.36,3.23,12.89,2.78
	c6.89-0.68,9.99-5.41,8.79-13.55c-5.65,5.92-12.27,7.48-19.63,4.56c-8.23-3.26-12.83-12.98-11.6-23.85
	c1.19-10.47,6.64-16.77,15.95-18.45c5.29-0.95,9.03,0.28,15,4.96c1.51-4.6,5.33-5.69,11.74-3.36c-0.12,0.11-0.35,0.28-0.33,0.31
	C1405.62,740.52,1405.79,740.73,1405.95,740.95z M1394.94,760.05c0-8.31-2.77-11.74-9.54-11.84c-6.2-0.1-10.64,4.88-10.63,11.93
	c0.01,7.06,4.32,11.81,10.73,11.8C1392.23,771.94,1394.94,768.52,1394.94,760.05z"/>
<path class="st7" d="M998.7,574.68c-0.05-13.21,7.49-24.19,19.54-28.48c13.15-4.67,26.33-1.42,34.05,8.21
	c2.36,2.95,2.83,4.58-1.37,6.42c-4.17,1.83-7.09,3.27-10.77-1.29c-3.6-4.46-9.24-4.78-14.77-3.55
	c-9.44,2.09-15.41,12.34-13.38,23.05c1.83,9.66,11.16,16.28,20.6,14.62c3.2-0.56,5.87-2.07,8.35-4.19c1.4-1.2,1.92-4.15,4.4-3.34
	c2.97,0.97,5.94,2.3,8.51,4.06c1.8,1.24-0.29,2.67-1.04,3.72c-11.07,15.58-37.38,14.8-48.65-1.41
	C1000.42,587.13,998.73,581.61,998.7,574.68z"/>
<path class="st6" d="M1260.89,783.22c-13.15-0.13-22.62-9.68-22.56-22.77c0.06-12.96,9.78-22.4,23.01-22.35
	c13.04,0.05,22.7,9.81,22.56,22.79C1283.76,773.94,1274.05,783.35,1260.89,783.22z M1272.08,760.62
	c-0.02-7.17-4.54-12.3-10.93-12.41c-6.15-0.11-11.1,5.37-11.1,12.31c-0.01,7.5,4.59,12.6,11.26,12.49
	C1267.78,772.91,1272.1,767.94,1272.08,760.62z"/>
<path class="st6" d="M1457.62,739.47c-3.92,9.63-7.78,19.12-11.64,28.62c-2.81,6.93-5.53,13.91-8.43,20.81
	c-3.3,7.85-10.73,11.61-19.12,10.05c-1.89-0.35-2.75-1.06-2.35-2.91c0.77-3.5-0.28-8,6.28-7.34c4.47,0.45,6.69-4.76,4.74-9.63
	c-4.75-11.89-9.45-23.81-14.4-35.62c-1.42-3.4-1.28-4.19,2.82-4.55c6-0.53,8.91,1.33,10.55,7.22c1.99,7.14,5.08,13.98,8.26,22.43
	c2.95-7.69,5.37-14.05,7.84-20.39C1446.07,738.16,1446.08,738.17,1457.62,739.47z"/>
<path class="st6" d="M1020.88,694.13c-13.24-0.14-22.71-9.71-22.51-22.75c0.2-13.04,9.85-22.37,23.07-22.29
	c13.03,0.08,22.66,9.86,22.48,22.83C1043.75,685,1034.14,694.26,1020.88,694.13z M1032.13,671.75c0.04-7.2-4.41-12.38-10.78-12.56
	c-6.24-0.18-11.14,5.08-11.29,12.1c-0.15,7.34,4.58,12.74,11.11,12.7C1027.69,683.95,1032.09,679.03,1032.13,671.75z"/>
<path class="st6" d="M1333.99,783.14c-13.2-0.11-22.7-9.69-22.51-22.7c0.19-13.04,9.79-22.39,23-22.38
	c13.24,0,22.58,9.73,22.44,23.36C1356.79,774.11,1347.14,783.25,1333.99,783.14z M1345.13,760.98c0.07-7.58-4.38-12.71-11.04-12.73
	c-6.18-0.02-10.98,5.42-10.99,12.43c-0.01,7.09,4.66,12.36,10.96,12.39C1340.68,773.09,1345.06,768.31,1345.13,760.98z"/>
<path class="st6" d="M1176.94,782.03c-2.65-0.03-5.31-0.05-7.96-0.08c-0.27-0.58-0.6-0.64-0.98-0.1c-2.03-1.91-0.78-4.34-0.85-6.48
	c-0.21-5.78-0.1-11.57-0.05-17.35c0.03-3.54,0.17-7.25-3.72-8.95c-3.95-1.73-7.81-0.79-11.23,1.69c-1.18,0.85-2.07,2.11-3.09,3.18
	c-1.63,1.22-1.05,2.99-1.07,4.56c-0.06,6.08-0.09,12.16,0.01,18.24c0.03,2.09-0.29,3.88-2.02,5.2c-1.33,0.01-2.65,0.01-3.98,0.02
	c-0.33-0.75-0.67-0.75-1.02-0.02c-2.21,0.66-2.96-0.23-2.96-2.44c0.04-17.93,0.05-35.85,0-53.78c-0.01-1.95,0.78-2.74,2.63-2.66
	c2.47,0.11,4.95,0.22,7.42,0.32c0.42,5.52-1.35,11.18,1,16.59c0.23,2.75,0.56,4.25,3.82,1.88c4.7-3.42,10.16-4.61,15.99-3.15
	c5.96,1.49,8.61,4.7,9.14,11.21c-1.62,1.26-1.01,3.06-1.02,4.64C1176.93,763.72,1176.95,772.87,1176.94,782.03z"/>
<path class="st6" d="M1223.93,586.07c-2.3,0.44-4.61,0.43-6.91,0.01c-4.34-1.8-8.69-1.83-13.03-0.01c-2.58,3.63,0.52,5.61,2.6,7.28
	c5.37,4.33,11.52,3.61,16.86,0.38c5.3-3.2,5.03,2.1,6.64,3.79c2.41,2.51-0.94,3.26-2.36,4.11c-9.3,5.54-23.01,4.34-30.38-2.5
	c-6.9-6.41-8.77-17.7-4.44-26.77c4.61-9.66,15.93-14.43,26.63-11.22c9.57,2.88,16.45,13.93,14.9,23.95
	c-0.13,0.84-0.69,1.02-1.4,1.05C1230.02,584.25,1226.98,584.34,1223.93,586.07z M1212.68,578.73c0,0.01,0,0.02,0,0.03
	c2.49,0,4.99-0.13,7.47,0.03c3.03,0.21,3.44-1.11,2.46-3.57c-1.61-4.03-4.86-5.84-8.9-6.15c-4.07-0.32-7.51,1.21-9.75,4.78
	c-2.28,3.63-1.59,4.8,2.75,4.87C1208.69,578.76,1210.69,578.73,1212.68,578.73z"/>
<path class="st6" d="M1054.05,764.22c0.33,5.98,4.55,9.77,11.27,9.94c3.55,0.09,6.95-0.74,9.95-2.7c3.64-2.39,3.45,1.64,4.85,2.88
	c1.44,1.29,2.32,2.64,0.16,4.46c-7.37,6.24-23.83,5.63-31.72-1.35c-8.1-7.17-9.43-20.87-2.92-30.06c5.27-7.43,14.5-10.72,23.8-8.47
	c8.15,1.97,14.11,8.67,15.41,17.64c0.3,2.08,1.05,4.23,0.24,6.38c-8.88-0.01-17.76-0.05-26.64-0.01
	C1056.92,762.96,1055.08,762.29,1054.05,764.22z M1063.75,756.82c0,0.01,0,0.01,0,0.02c2.49,0,4.98-0.09,7.46,0.02
	c3.11,0.15,3.35-1.28,2.27-3.67c-1.65-3.66-4.55-5.75-8.45-6.07c-4-0.34-7.55,0.9-9.9,4.45c-0.82,1.24-1.86,2.63-1.3,4.12
	c0.69,1.85,2.56,1.03,3.94,1.11C1059.77,756.89,1061.76,756.82,1063.75,756.82z"/>
<path class="st6" d="M1072.02,586.15c0.04,4.84,3.04,8.46,8.11,9.61c4.06,0.92,8.19,0.54,11.54-1.75c4.88-3.34,5.63,1.13,7.15,3.47
	c2.23,3.44-1.51,3.71-3.19,4.54c-11.98,5.91-25.62,3.21-32.34-6.23c-5.56-7.8-5.15-19.73,0.95-27.5c5.82-7.41,16.7-10.18,25.7-6.56
	c8.61,3.46,14.19,13.18,13.23,23.02c-0.07,0.75-0.38,1.21-1.16,1.29c-0.38-0.81-0.73-0.73-1.05,0.04c-0.98-0.01-1.95-0.02-2.93-0.03
	c-7.22-2.47-14.66-0.48-21.97-1.04C1074.65,584.91,1073,584.52,1072.02,586.15z M1081.5,578.78c0-0.01,0-0.02,0-0.03
	c2.49,0,4.98-0.11,7.46,0.03c3.59,0.2,3.39-1.53,2.24-3.96c-1.94-4.09-5.41-5.82-9.65-5.78c-4.26,0.04-7.59,1.99-9.53,6.01
	c-1.35,2.8-0.65,3.97,2.52,3.75C1076.85,578.66,1079.18,578.78,1081.5,578.78z"/>
<path class="st6" d="M1287.98,675.08c-2.38,0.78-1.76,2.18-0.93,3.83c3,6.02,11.35,8.06,18.84,4.54c3.58-1.69,6.9-0.17,8.18,3.62
	c0.41,1.22-0.13,1.75-0.93,2.47c-7.61,6.92-25.63,5.77-33.22-2.17c-7.91-8.26-7.85-22.98,0.13-31.38
	c6.39-6.74,16.76-8.78,25.26-4.97c8.17,3.65,12.81,12.01,12.22,21.99c-1.21,0.16-1.64,0.93-1.61,2.06
	c-0.64-0.01-1.28-0.02-1.92-0.03c-6.88-2.42-13.99-0.55-20.97-1.04C1291.34,673.89,1289.33,673.23,1287.98,675.08z M1296.23,667.8
	c0-0.01,0-0.01,0-0.02c2.49,0,4.98-0.14,7.46,0.04c3.04,0.22,3.43-0.99,2.37-3.5c-1.74-4.17-5.1-6.18-9.31-6.33
	c-4.45-0.16-7.99,1.85-10.02,6.05c-1.32,2.73-0.68,4.01,2.54,3.79C1291.58,667.67,1293.91,667.8,1296.23,667.8z"/>
<path class="st8" d="M1123.01,566.12c6.61-4.9,12.65-7.13,19.69-5.4c5.35,1.31,8.83,4.39,9.07,9.85
	c0.46,10.47,0.25,20.96,0.37,31.44c0.02,1.87-0.95,2.19-2.49,2.14c-1.83-0.05-3.68-0.15-5.49,0.04c-2.73,0.28-3.35-0.93-3.29-3.47
	c0.15-7.15,0.09-14.32,0.04-21.47c-0.04-6.38-2.46-9.1-7.93-9.08c-6.09,0.03-9.89,3.53-9.9,9.16c-0.01,6.99-0.19,13.99,0.08,20.97
	c0.12,3.16-0.88,4.22-3.9,3.86c-1.48-0.17-3-0.12-4.49,0c-2.07,0.16-2.94-0.48-2.92-2.75c0.1-12.48,0.11-24.97,0.01-37.45
	c-0.02-2.56,1.08-3.15,3.29-2.94c1.15,0.11,2.35,0.15,3.49,0C1121.76,560.61,1123.82,561.36,1123.01,566.12z"/>
<path class="st8" d="M1064,655.12c6.16-4.5,12.08-7.19,19.11-5.53c6.46,1.53,9.73,5.26,9.87,11.94c0.21,9.47,0.01,18.95,0.17,28.43
	c0.05,2.7-0.86,3.59-3.45,3.2c-1.14-0.17-2.35-0.17-3.48,0.02c-3.5,0.61-4.55-0.71-4.42-4.25c0.27-6.97,0.13-13.96,0.04-20.94
	c-0.08-6.27-2.67-8.96-8.21-8.78c-5.95,0.19-9.57,3.54-9.59,8.93c-0.02,6.98-0.15,13.97,0.07,20.95c0.1,3.2-0.76,4.62-4.1,4.14
	c-1.47-0.21-3-0.21-4.48-0.05c-2.34,0.27-2.75-0.86-2.74-2.9c0.07-12.47,0.09-24.94-0.01-37.41c-0.02-2.2,0.7-3.03,2.85-2.83
	c1.15,0.11,2.34,0.11,3.49-0.01C1062.44,649.67,1065.05,650.09,1064,655.12z"/>
<path class="st6" d="M1189.92,779.91c0-12.98,0.01-25.97,0.01-38.95c0.33-0.54,0.65-1.08,0.98-1.63c1.65-0.1,3.3-0.13,4.94-0.3
	c3.35-0.35,6,0.08,5.1,5.17c6.04-4.67,11.99-7.18,19.03-5.6c5.84,1.31,9.62,4.98,9.81,10.95c0.34,10.47,0.12,20.95,0.08,31.43
	c0,0.32-0.59,0.63-0.91,0.95c-0.18-0.43-0.35-0.86-0.53-1.29c-0.16,0.44-0.32,0.88-0.47,1.32c-2.65,0.02-5.31,0.04-7.96,0.05
	c-0.35-0.36-0.71-0.73-1.06-1.09c0.03-8.33,0.05-16.66,0.07-24.99c0.43-0.17,0.85-0.34,1.28-0.51c-0.43-0.16-0.87-0.32-1.3-0.48
	c-2.81-6.94-8.78-8.71-15-4.52c-2.06,1.39-3.18,2.99-3.11,5.68c0.18,7.27,0.11,14.54,0.01,21.81c-0.02,1.31,0.94,3.02-0.93,3.95
	c-0.37-0.54-0.7-0.5-0.98,0.08c-2.66,0.02-5.32,0.05-7.97,0.07C1190.99,781.13,1190.85,780.32,1189.92,779.91z"/>
<path class="st7" d="M1342.22,694.16c-7.05-0.15-12.49-1.36-17.53-4.27c-2.41-1.39-3.76-2.85-1.34-5.32c1.67-1.7,1.6-6.56,6.15-3.01
	c3.77,2.94,8.43,3.93,13.18,3.78c2.71-0.09,5.75-0.82,6.1-4.02c0.35-3.28-2.82-3.7-5.16-4.31c-4.34-1.12-8.82-1.61-13.01-3.37
	c-4.57-1.92-7.24-5.22-7.61-10.16c-0.37-4.96,1.94-8.64,6.01-11.28c7.27-4.72,20.72-3.92,27.49,1.4c3.24,2.54-0.02,4.01-0.76,5.79
	c-0.65,1.56-1.35,3.5-3.98,1.74c-4.12-2.75-8.71-4.1-13.74-2.89c-1.86,0.45-3.68,1.34-3.84,3.4c-0.19,2.33,1.9,2.85,3.68,3.31
	c3.85,1,7.79,1.72,11.57,2.93c7.42,2.37,10.55,6.39,10.38,12.76c-0.16,6.13-4.4,10.89-11.49,12.62
	C1345.92,693.85,1343.41,693.99,1342.22,694.16z"/>
<path class="st7" d="M1384.08,694.12c-6.81-0.07-12.34-1.48-17.56-4.44c-2.98-1.69-2.52-3.44-0.77-5.52c1.43-1.7,1.53-5.6,5.57-2.83
	c4.32,2.97,9.2,4.71,14.62,3.84c2.36-0.38,4.81-1.05,5.01-3.97c0.2-2.87-2.32-3.38-4.36-3.97c-4.31-1.25-8.81-1.68-13.04-3.33
	c-4.96-1.93-8.14-5.24-8.38-10.67c-0.25-5.6,2.6-9.63,7.56-11.86c8.7-3.92,17.19-2.87,25.3,1.91c4.45,2.62,0.09,4.7-0.57,6.93
	c-0.85,2.85-2.28,1.63-4.04,0.55c-4.08-2.49-8.58-3.67-13.37-2.5c-1.82,0.44-3.59,1.49-3.69,3.58c-0.09,2.08,1.96,2.58,3.46,3.01
	c3.51,1.01,7.14,1.59,10.64,2.62c8.4,2.47,11.8,6.58,11.45,13.48c-0.33,6.5-5.37,11.39-13.25,12.74
	C1386.88,694.01,1385.04,694.04,1384.08,694.12z"/>
<path class="st7" d="M1014.67,734.15c-0.85-0.01-1.7-0.02-2.56-0.03c-2.24-2.22-5.05-1.07-7.58-1.12c-2.88-0.05-4.67-0.33-4.64-3.99
	c0.03-3.45,1.42-4.17,4.5-4.12c10.16,0.14,20.32,0.07,30.48,0.02c1.92-0.01,4.08,0.62,5.51-1.42c1.14-0.39,2.28-0.56,3.43,0
	c0.06,1.16,0.01,2.35,0.2,3.49c0.8,4.83-1.18,6.58-6,6.04c-1.97-0.22-4.36-0.97-6.07,1.07c-0.62,0.01-1.23,0.01-1.85,0.02
	c-0.36-0.77-0.7-0.88-1.03,0.02c-1.75,1.41-1.05,3.37-1.05,5.11c-0.05,12.94-0.13,25.88,0.03,38.81c0.04,3.09-0.44,4.38-3.96,4.3
	c-8.86-0.21-8.77-0.03-8.88-8.85c-0.16-13.09,0.5-26.19-0.37-39.27c0.14-0.19,0.29-0.38,0.43-0.57
	C1015.05,733.82,1014.86,733.98,1014.67,734.15z"/>
<path class="st6" d="M1114.78,783.16c-11.43-0.05-19.74-6.04-22.52-15.46c-3-10.15,0.56-20.56,8.86-25.92
	c8.25-5.33,19.91-4.85,27.04,1.22c1.19,1.01,4.04,2.38,1.43,4.06c-2.37,1.53-2.94,7.41-7.89,3.77c-5.14-3.79-11.77-3.2-15.78,1.23
	c-3.92,4.33-3.97,12.46-0.11,17.09c3.75,4.5,10.39,5.27,15.72,1.48c5.14-3.66,6.08,2.16,8.34,3.9c2.44,1.87-1.03,3.18-2.25,4.25
	C1123.69,782.24,1118.84,783.26,1114.78,783.16z"/>
<path class="st7" d="M1252.04,694.14c-10.44,0.04-18.57-5.41-21.59-14.46c-3.35-10.05-0.54-20.38,7.09-26.07
	c7.75-5.78,19.64-6.15,27.1-0.6c1.55,1.16,4.88,1.95,3.01,5.09c-2.29,3.86-5.97,5.01-8.86,3.12c-4.84-3.16-11.3-2.4-14.98,1.77
	c-4.08,4.63-4.04,12.73,0.1,17.47c3.56,4.08,10.48,5.04,14.95,1.38c5.35-4.38,6.51,1.79,8.71,3.56c2.54,2.04-1.16,3.43-2.52,4.61
	C1261.38,693.23,1256.8,694.07,1252.04,694.14z"/>
<path class="st7" d="M1207.72,694.1c-10.7-0.1-18.72-5.72-21.64-15.16c-3.01-9.75,0.13-20.16,7.69-25.49
	c8.06-5.69,19.87-5.92,27.12-0.26c1.44,1.12,5.31,2.3,2.24,5.02c-2.12,1.88-3.34,7.36-8.37,3.13c-4.1-3.44-10.98-2.52-14.62,1.25
	c-4.23,4.37-4.53,12.77-0.62,17.51c3.33,4.04,9.81,5.02,14.58,2.42c1.36-0.74,2.19-3.31,4.01-2.16c2.21,1.39,4.17,3.34,5.82,5.38
	c1.09,1.34-0.62,2.35-1.5,3.24C1219.06,692.31,1213.67,694.16,1207.72,694.1z"/>
<path class="st7" d="M1176.25,588.17c0.47,3.97,0.8,7.62,6.71,6.62c3.3-0.56,2.16,3.32,3.12,5.11c0.93,1.74,0.26,3-1.61,3.95
	c-9.57,4.84-19.2-0.77-19.29-11.34c-0.05-5.65-0.14-11.3,0.03-16.94c0.09-3.06-0.15-5.11-4.12-4.73c-4.45,0.42-2.68-3.19-2.84-5.27
	c-0.17-2.17-0.75-5.11,3.15-4.53c3.24,0.48,4.18-1.01,3.79-3.93c-0.09-0.65-0.14-1.35-0.02-1.99c0.35-1.87-1.11-4.84,0.99-5.43
	c2.91-0.82,6.36-0.82,9.32-0.09c2.32,0.57,1.28,3.53,1.1,5.32c-0.44,4.39,0.43,7.09,5.65,6.14c2.97-0.54,3.62,1.41,2.9,3.56
	c-0.72,2.15,2.61,6.19-2.8,6.33c-2.07,0.05-4.37-0.82-6.13,1.09C1174.18,577.42,1174.13,582.8,1176.25,588.17z"/>
<path class="st8" d="M1291.85,752.96c-0.01-8.63,0.09-17.27-0.06-25.9c-0.05-2.86,0.48-4.09,3.79-4.03
	c7.45,0.14,7.46-0.07,7.46,7.27c0,15.61-0.34,31.22,0.17,46.81c0.2,6.04-3.16,4.73-6.61,5.18c-4.75,0.62-4.93-1.78-4.83-5.43
	C1292.01,768.91,1291.86,760.93,1291.85,752.96z"/>
<path class="st6" d="M1251.97,603.94c-9.9,0.64-9.91,0.64-9.91-9.03c0-9.98,0.09-19.96-0.05-29.94c-0.04-2.96,0.77-4.66,3.88-3.86
	c2.73,0.7,7.43-2.78,7.79,3.5c0.06,1.04,1.27,0.55,1.97,0.06c0.95-0.66,1.87-1.4,2.87-1.97c2.3-1.32,5.07-3.41,7.33-2.23
	c2.57,1.34,0.67,4.81,1.09,7.3c0.38,2.25-0.5,3.03-2.96,3.27c-4.62,0.44-9.42,1.18-10.88,6.87c-1.7,1.2-1.12,3-1.13,4.59
	C1251.93,589.64,1251.96,596.79,1251.97,603.94z"/>
<path class="st9" d="M604.99,460.2c4.4-1.4,7.72,1.51,11.22,3.1c10.25,4.64,20.09,10.28,30.55,14.37c9.2,3.6,17.28,9.78,27.23,11.53
	c1.97,0.35,2.94,4.44,5.26,2.21c2.37-2.28,0.2-5.18-1.13-7.27c-3.43-5.41-6.06-11.8-7.26-17.37c-2.35-10.94-7.15-20.73-11.03-30.9
	c-1.51-3.96-1.7-7.52-1.6-11.42c9.04,24.13,18.08,48.25,27.55,73.52c-5.83-2.7-10.57-4.89-15.3-7.09
	c-20.99-9.71-41.99-19.42-62.98-29.14C606.61,461.33,605.82,460.72,604.99,460.2z"/>
<path class="st9" d="M639.81,699.69c1.04,3.87-1.67,6.6-3,9.74c-1.5,3.52-2.85,6.88,1.54,9.45c0.63,0.37,1.48,1.63,1.31,1.91
	c-1.98,3.21-1.03,5.82,1.98,7.28c2.62,1.27,4.51,3.72,7.8,4.03c4.65,0.43,8.3,4.53,13.55,3.98c0.64-0.07,2.88,4.21,5.51,5.32
	c5.3,2.23,11.07,3.69,15.82,6.74c5.09,3.27,11.36,3.6,16.02,7.29c2.79,2.21,5.79,3.84,9.14,4.41c2.73,0.47,2.58,2.02,2.59,3.87
	c-11.95-4.73-23.32-10.72-34.96-16.11c-15.36-7.11-30.67-14.35-46.1-21.33c-2.67-1.21-3.04-2.3-1.72-4.74
	C633.1,714.4,635.44,706.55,639.81,699.69z"/>
<path class="st9" d="M730.08,518.94c3.63-1.86,6.26,1.05,9.04,2.24c10.37,4.41,20.85,8.71,30.73,14.07
	c12.16,6.6,25.8,9.78,37.62,17.02c7.81,4.79,16.33,8.14,24.51,12.2c1.48,0.74,2.92,1.58,4.68,1.55c2.61-0.05,3.49,1.49,3.36,3.86
	c-10.26-4.64-20.54-9.22-30.76-13.93c-24.81-11.44-49.59-22.93-74.37-34.42C733.24,520.76,731.68,519.81,730.08,518.94z"/>
<path class="st9" d="M828.21,337.93c-4.07,0.55-7.65,0.07-11-2.95c-3.21-2.89-7.98-1.71-8.72,2.19c-0.59,3.12-2.44,5.31-3.45,8.01
	c-2.54,6.81-6.14,13.26-7.03,20.63c-0.06,0.48-0.08,1.13-0.39,1.39c-8.19,7.05-8.92,17.97-14.02,26.53
	c-2.07,3.48-2.65,8.66-7.48,10.34c8.09-17.82,16.16-35.66,24.28-53.47c2.82-6.19,5.82-12.31,8.62-18.51
	c0.78-1.71,1.33-2.96,3.59-1.8C817.76,332.92,823,335.39,828.21,337.93z"/>
<path class="st9" d="M824.19,788.12c-1.26-6.16,3.24-10.56,5.31-15.51c2.92-7,5.29-14.34,9.19-20.89c2.46-4.14,3.1-9.01,6.27-12.9
	c4.84-5.94,4.76-14.32,9.37-20.48c4.36-5.81,5.85-13.01,9.36-19.27c1.66-2.96,1.83-6.76,2.68-10.17c0.84,0.34,1.73,0.7,2.63,1.05
	c0.56,2.52-1.19,4.39-2.09,6.35c-13.79,30.11-27.73,60.15-41.65,90.2C824.99,787.1,824.55,787.59,824.19,788.12z"/>
<path class="st9" d="M687.94,595.83c0.27,2.84,0.08,5.46-1.62,8.05c-2.65,4.02-1.54,8.53-0.82,12.9c0.15,0.92,0.92,1.84-0.59,2.83
	c-1.41-1.56-0.99-5.45-3.56-4.9c-1.39,0.3-2.17,3.58-3.18,5.55c-2.13,4.15-5.16,8.96-5.34,12.72c-0.41,8.7-8.26,13.01-9.66,20.49
	c-1.04,5.57-4.18,9.88-6.91,14.51c-0.56,0.95-0.99,2.27-0.83,3.32c0.87,5.96-3.65,8.01-7.45,10.62
	c5.04-13.02,11.45-25.42,17.36-38.04C672.84,627.84,679.68,611.5,687.94,595.83z"/>
<path class="st9" d="M722.36,597.97c-6.36-1.65-3.92-7.97-6.09-11.86c-0.9-1.61-0.93-3.77-2.78-4.91c-1.13-0.7-1.66-1.76-1.39-2.95
	c1.29-5.62-3.51-9.48-4.11-14.54c-0.11-0.91-0.62-1.54-1.62-1.51c-0.9,0.03-1.9,0.57-1.88,1.33c0.11,3.09-2.5,5.21-2.57,8.35
	c-0.08,3.48,0.75,7.56-4.89,8.69c-2.07,0.42-2.2,4.52-2.91,7.03c-1.02,3.61-3.32,6.17-6.25,8.29c5.22-13.79,12.33-26.7,18.82-41.58
	C712.23,569.69,717.3,583.83,722.36,597.97z"/>
<path class="st9" d="M683.98,418.05c2.52,0.48,3.89,2.61,3.84,4.57c-0.07,3.03,1.27,5.38,2.32,7.9
	c4.72,11.33,8.09,23.12,12.18,34.66c1.63,4.61,5.01,8.52,5.93,13.49c0.18,0.99,1,1.23,1.89,1.23c1.24,0,1.5-0.9,1.94-1.87
	c1.86-4.03,3.94-7.95,5.79-11.99c0.55-1.2,1.01-2.07,2.48-1.8c-3.45,7.84-6.9,15.69-10.84,24.66c-5.18-14.13-9.95-27.01-14.61-39.93
	C691.19,438.7,687.62,428.36,683.98,418.05z"/>
<path class="st9" d="M567.84,307.82c0.3,3.14,1.44,7.87-0.81,8.96c-3.92,1.9-3.06,5.59-4.96,8.07c-2.71,3.54-4.2,7.77-4,12.4
	c0.12,2.67-2.06,4.06-3.51,5.74c-2.32,2.69-4.12,5.59-4.45,9.11c-0.25,2.62-2.13,4.1-3.53,5.83c-3.93,4.86-3.83,11.41-7.2,16.43
	c-1.41,2.11-1.98,5.04-5.05,5.71c8.15-17.89,16.27-35.79,24.46-53.66C561.66,320.15,564.21,313.72,567.84,307.82z"/>
<path class="st5" d="M679.95,524.04c-2.69,0.19-4.99-0.65-7.49-1.81c-8.53-3.99-17.42-7.24-25.89-11.34
	c-4.53-2.19-8.69-5.24-13.45-7.03c-6.48-2.45-12.23-6.63-19.2-7.95c-2.03-0.38-3.46-1.83-3.84-4.04c1.84,0.31,3.68,0.62,5.52,0.94
	c5.61,4.45,12.49,6.46,18.81,9.49c14.63,7.01,29.49,13.55,44.23,20.33C679.18,522.88,679.52,523.56,679.95,524.04z"/>
<path class="st9" d="M798.41,731.95c2.25,1.36,3.25,3.81,3.94,5.96c1.81,5.57,5.87,10.39,5.7,16.62c-0.02,0.84,0.05,1.81,1.04,2
	c4.72,0.95,5.07,4.5,4.91,8.25c-0.34,7.85,4.18,14.3,6.05,21.51c0.59,2.28,2.7,1.4,4.19,1.77c-0.77,1.98-1.53,3.96-2.92,7.53
	C813.35,773.45,805.88,752.7,798.41,731.95z"/>
<path class="st9" d="M745.18,778.92c4.51-0.76,7.75,2.64,11.75,3.57c7.52,1.75,13.38,8.45,21.78,7.48c3.52-0.41,1.14,2.98,3.05,4.06
	c9.97,5.69,9.93,5.81,10.41-5.55c0.21,0.25,0.5,0.47,0.61,0.76c1.63,4.46,3.23,8.93,5.41,14.96
	C779.81,795.44,762.5,787.18,745.18,778.92z"/>
<path class="st9" d="M884.88,364.1c-3.16,0.19-6-0.49-8.91-1.97c-6.81-3.47-13.92-6.3-21.4-8.08c-0.63-0.15-1.52-0.08-1.86-0.48
	c-6.34-7.45-16.08-9.05-23.88-13.97c-0.42-0.27-0.46-1.14-0.68-1.73C847.26,346.19,866.22,354.82,884.88,364.1z"/>
<path class="st9" d="M759.81,699.95c-4.47-0.99-4.3-5.4-5.59-8.36c-2.45-5.63-2.71-12.21-7.53-16.82c-0.32-0.31-0.58-0.92-0.53-1.34
	c0.64-5.11-1.34-9.67-2.91-14.32c-0.3-0.88,0.06-1.61,0.79-2.16C749.31,671.29,754.56,685.62,759.81,699.95z"/>
<path class="st9" d="M946.11,525.22c-0.55-6.73,2.93-11.96,5.88-17.62c2.18-4.17,3.61-8.81,5.75-13.13
	c1.06-2.15,2.15-2.54,4.05-2.47C957,503.29,952.15,514.53,946.11,525.22z"/>
<path class="st10" d="M1040.37,723.5c-1.43,2.04-3.59,1.41-5.51,1.42c-10.16,0.05-20.32,0.11-30.48-0.02
	c-3.08-0.04-4.47,0.67-4.5,4.12c-0.03,3.66,1.77,3.94,4.64,3.99c2.53,0.04,5.34-1.1,7.58,1.12c-3.14,0.06-6.3-0.11-9.41,0.25
	c-3.76,0.44-4.88-0.88-4.65-4.63c0.43-7.16-1.52-6.57,6.6-6.54C1016.55,723.24,1028.46,723.39,1040.37,723.5z"/>
<path class="st9" d="M583.96,272.75c0.57,4.31-1.55,7.88-3.2,11.56c-2.58,5.78-6.13,11.1-6.88,17.7c-0.33,2.92-1.19,6.93-6.1,5.84
	C572.6,295.89,578.08,284.23,583.96,272.75z"/>
<path class="st9" d="M926.15,569.05c-2.09-3.95,1.37-6.99,2.66-9.65c4.16-8.62,6.93-17.9,12.05-26.06c0.84-1.34,1.04-3.3,3.25-3.27
	C938.67,543.31,932.61,556.27,926.15,569.05z"/>
<path class="st11" d="M423.8,619.95c-3.43,8.6-3.33,8.38,5.16,12.55c4.85,2.39,10.24,3.76,14.49,7.32c-1.53,0.06-2.81,0.6-4.02,1.62
	c-0.93,0.78-2.68,0.78-2.93-0.52c-1.11-5.97-6.86-4.75-10.42-6.69c-2.23-1.22-5.89-0.05-6.08-4.17
	C419.82,626.18,419.09,622.02,423.8,619.95z"/>
<path class="st9" d="M736.21,635.87c-2.83,0.47-3.95-0.4-4.29-3.59c-0.74-6.95-3.21-13.36-6.38-19.71c-2.1-4.2-3.99-9.15-3.19-14.33
	C727.62,610.54,732.11,623.13,736.21,635.87z"/>
<path class="st9" d="M887.87,650.47c-0.38-3.77,0.69-7.29,2.74-10.26c2.37-3.43,3.08-7.48,4.9-11.11c1.43-2.85-1.21-4.64-3.77-5
	c-2.7-0.38-3.89-1.46-3.73-4.11c2.71,1.11,5.37,2.34,8.14,3.28c2.96,1.01,3.82,2.29,2.21,5.4
	C894.66,635.83,891.34,643.19,887.87,650.47z"/>
<path class="st9" d="M658.14,424.04c-4.3-3.86-5.97-9.3-7.86-14.37c-1.41-3.78-3.37-7.86-2.04-12.26
	C652.3,406,655.28,414.99,658.14,424.04z"/>
<path class="st11" d="M615.6,492.81c-1.84-0.31-3.68-0.62-5.52-0.94c-4.54-3.53-10.64-4.08-15.07-7.83
	c6.23,1.56,12.77,1.77,18.77,4.37C615.9,489.34,616.37,490.77,615.6,492.81z"/>
<path class="st9" d="M720.3,464.29c0.34-8.07,3.68-14.74,9.46-20.27C727.07,450.99,723.93,457.75,720.3,464.29z"/>
<path class="st9" d="M648,681.86c0.63,6.84-2.11,12.46-6.41,17.47c-0.32,0.37-1.2,0.27-1.82,0.39
	C641.8,693.44,644.77,687.59,648,681.86z"/>
<path class="st9" d="M743.76,655.95c-0.98-0.04-2.28,0.08-2.51-1.07c-1.26-6.48-6.49-11.89-5.08-19.07
	C739.27,642.31,741.41,649.17,743.76,655.95z"/>
<path class="st11" d="M594.13,483.72c-5.6-2.04-11.17-4.13-16.04-7.69c5.41-0.29,9.92,2.61,14.78,4.23
	C594.51,480.81,593.93,482.48,594.13,483.72z"/>
<path class="st9" d="M869.14,689.22c1.93-5.02,3.86-10.04,5.81-15.05c0.52-1.34,1.5-2.16,2.99-2.24
	C875.3,677.85,873.65,684.26,869.14,689.22z"/>
<path class="st10" d="M1176.94,782.03c0.01-9.16-0.02-18.31,0.05-27.47c0.01-1.58-0.6-3.38,1.02-4.64
	c0.09,10.14,0.18,20.29,0.27,30.43C1178.29,781.27,1178.01,781.96,1176.94,782.03z"/>
<path class="st10" d="M1054.05,764.22c1.03-1.93,2.87-1.26,4.4-1.27c8.88-0.05,17.76-0.01,26.64,0.01
	c-0.66,2.09-2.44,1.31-3.76,1.32C1072.24,764.32,1063.15,764.25,1054.05,764.22z"/>
<path class="st10" d="M1145.97,781.94c1.74-1.32,2.06-3.11,2.02-5.2c-0.1-6.08-0.07-12.16-0.01-18.24c0.02-1.57-0.56-3.34,1.07-4.56
	c0.06,8.48,0.02,16.97,0.24,25.45C1149.37,782.21,1148.1,782.43,1145.97,781.94z"/>
<path class="st10" d="M1287.98,675.08c1.35-1.85,3.36-1.19,5.05-1.07c6.99,0.5,14.09-1.38,20.97,1.04
	C1305.32,675.06,1296.65,675.07,1287.98,675.08z"/>
<path class="st10" d="M1072.02,586.15c0.98-1.63,2.63-1.24,4.03-1.14c7.32,0.56,14.75-1.43,21.97,1.04
	C1089.35,586.09,1080.69,586.12,1072.02,586.15z"/>
<path class="st10" d="M1251.97,603.94c-0.01-7.15-0.04-14.29,0.01-21.44c0.01-1.58-0.57-3.39,1.13-4.59
	c0.06,7.78,0.15,15.57,0.17,23.35C1253.27,602.29,1253.78,603.72,1251.97,603.94z"/>
<path class="st11" d="M566.09,667.77c-3.41-0.88-6.63-2.15-9.16-4.73C561.74,662.27,565.53,664.23,566.09,667.77z"/>
<path class="st10" d="M1031.92,734.09c1.71-2.04,4.1-1.29,6.07-1.07c4.82,0.54,6.8-1.21,6-6.04c-0.19-1.14-0.14-2.32-0.2-3.49
	c2.8,3.08,1.1,6.73,1.12,10.12c0.01,1.06-1.65,0.71-2.58,0.7C1038.87,734.28,1035.39,734.17,1031.92,734.09z"/>
<path class="st10" d="M1176.25,588.17c-2.13-5.37-2.08-10.76-0.06-16.15C1176.21,577.41,1176.23,582.79,1176.25,588.17z"/>
<path class="st10" d="M1149.06,739.98c-2.36-5.41-0.59-11.06-1-16.59C1150.65,728.78,1148.7,734.45,1149.06,739.98z"/>
<path class="st10" d="M1203.98,586.07c4.35-1.81,8.69-1.79,13.03,0.01C1212.67,586.08,1208.33,586.08,1203.98,586.07z"/>
<path class="st9" d="M681.59,412.03c4.18,0.49,1.89,3.61,2.29,5.64C682.63,415.99,682.05,414.04,681.59,412.03z"/>
<path class="st10" d="M1223.93,586.07c3.05-1.74,6.09-1.83,9.12,0.06C1230,586.11,1226.96,586.09,1223.93,586.07z"/>
<path class="st9" d="M944.08,530.11c0.12-1.59-0.82-3.65,1.84-4.08C945.83,527.62,945.2,528.97,944.08,530.11z"/>
<path class="st10" d="M1315.92,675.08c-0.03-1.13,0.39-1.9,1.61-2.06C1317.94,674.45,1317.81,675.45,1315.92,675.08z"/>
<path class="st9" d="M680.57,409.22c0.19,0.38,0.38,0.77,0.57,1.15C680.95,409.98,680.76,409.6,680.57,409.22z"/>
<path class="st10" d="M1189.92,779.91c0.93,0.41,1.06,1.22,1.07,2.1C1189.4,781.94,1189.72,780.89,1189.92,779.91z"/>
<path class="st10" d="M1227.96,781.96c0.16-0.44,0.32-0.88,0.47-1.32c0.18,0.43,0.35,0.86,0.53,1.29
	C1228.63,781.93,1228.29,781.95,1227.96,781.96z"/>
<path class="st10" d="M1218.98,754.94c0.43,0.16,0.87,0.32,1.3,0.48c-0.43,0.17-0.85,0.34-1.28,0.51
	C1219,755.6,1218.99,755.27,1218.98,754.94z"/>
<path class="st9" d="M887.08,652.14c0.22-0.4,0.45-0.8,0.67-1.2C887.53,651.34,887.31,651.74,887.08,652.14z"/>
<path class="st10" d="M1190.91,739.33c-0.33,0.54-0.65,1.08-0.98,1.63C1189.83,740.15,1189.99,739.51,1190.91,739.33z"/>
<path class="st10" d="M1405.95,740.95c-0.16-0.22-0.33-0.42-0.45-0.66c-0.02-0.04,0.22-0.21,0.33-0.31
	C1405.87,740.3,1405.91,740.62,1405.95,740.95z"/>
<path class="st10" d="M1100.95,586.09c0.32-0.77,0.67-0.85,1.05-0.04C1101.65,586.06,1101.3,586.07,1100.95,586.09z"/>
<path class="st10" d="M1029.04,734.13c0.33-0.9,0.67-0.79,1.03-0.02C1029.73,734.12,1029.38,734.12,1029.04,734.13z"/>
<path class="st10" d="M1168,781.85c0.38-0.54,0.71-0.49,0.98,0.1C1168.65,781.92,1168.33,781.89,1168,781.85z"/>
<path class="st10" d="M1198.97,781.94c0.28-0.58,0.61-0.61,0.98-0.08C1199.62,781.89,1199.29,781.91,1198.97,781.94z"/>
<path class="st10" d="M1218.93,780.92c0.35,0.36,0.71,0.73,1.06,1.09C1219.17,782.1,1218.84,781.72,1218.93,780.92z"/>
<path class="st10" d="M1140.97,781.95c0.35-0.74,0.69-0.73,1.02,0.02C1141.65,781.96,1141.31,781.96,1140.97,781.95z"/>
<path class="st10" d="M1151.99,671.98c2.66-0.03,5.32-0.06,7.98-0.09C1157.32,673.56,1154.66,673.46,1151.99,671.98z"/>
<path class="st10" d="M1014.67,734.15c0.19-0.16,0.38-0.33,0.57-0.49c-0.14,0.19-0.29,0.38-0.43,0.57
	C1014.8,734.23,1014.67,734.15,1014.67,734.15z"/>
</svg>
