<svg width="17" height="17" viewBox="0 0 17 17" fill="none" xmlns="http://www.w3.org/2000/svg">
<path d="M9.92798 1.41402L10.3736 0.968657C11.6658 -0.322886 13.7601 -0.322886 15.0523 0.968657C16.3445 2.2602 16.3445 4.35339 15.0523 5.64493L14.6067 6.09029L9.92798 1.41402Z" fill="black"/>
<path d="M13.6709 7.02002L6.89787 13.7895L2.21912 9.11321L8.99216 2.34375L13.6709 7.02002Z" fill="black"/>
<path d="M0.0128679 15.3267L1.28281 10.1606V10.1383C1.28281 10.116 1.28281 10.116 1.30509 10.0938L5.91699 14.7032C5.91699 14.7032 5.89471 14.7032 5.89471 14.7255H5.87243L0.703539 15.9948C0.658979 15.9948 0.61442 16.017 0.569861 16.017C0.413903 16.017 0.280226 15.9502 0.168827 15.8612C0.0351486 15.7275 -0.0316916 15.5271 0.0128679 15.3267Z" fill="black"/>
</svg>
