<?xml version="1.0" encoding="UTF-8"?>
<!DOCTYPE svg PUBLIC "-//W3C//DTD SVG 1.1//EN" "http://www.w3.org/Graphics/SVG/1.1/DTD/svg11.dtd">
<!-- Creator: CorelDRAW 2018 (64-Bit) -->
<svg xmlns="http://www.w3.org/2000/svg" xml:space="preserve" width="535px" height="416px" version="1.1" style="shape-rendering:geometricPrecision; text-rendering:geometricPrecision; image-rendering:optimizeQuality; fill-rule:evenodd; clip-rule:evenodd"
viewBox="0 0 535 415.928"
 xmlns:xlink="http://www.w3.org/1999/xlink">
 <defs>
  <style type="text/css">
   <![CDATA[
    .fil2 {fill:#332B24}
    .fil1 {fill:#0077C8;fill-rule:nonzero}
    .fil0 {fill:#332B24;fill-rule:nonzero}
   ]]>
  </style>
 </defs>
 <g id="图层_x0020_1">
  <metadata id="CorelCorpID_0Corel-Layer"/>
  <g id="_2866650914976">
   <g>
    <path class="fil0" d="M262.952 77.265l-41.401 17.698c-5.77,2.945 -10.791,-0.144 -10.791,-0.144l0 0.001 -34.064 -14.562c-1.255,-0.535 -2.314,-1.526 -2.899,-2.865 -1.215,-2.784 0.083,-6.015 2.899,-7.217l80.158 -34.213c3.37,-1.393 9.152,-2.427 11.527,1.146 1.434,2.668 1.146,5.267 -2.877,7.066l-71.15 30.416c-0.014,0.01 -1.823,0.615 0,1.252l18.587 7.946 0 -0.001 0.006 0.003 0.403 0.172c0.871,0.336 3.026,0.973 5.408,0.231l51.444 -21.991c12.105,-4.951 18.497,-8.639 32.467,-8.037 12.219,0.821 32.893,7.559 40.99,16.602 2.377,2.655 3.767,5.468 4.121,8.304 0.404,3.237 -0.488,6.301 -2.734,9.028 -1.703,2.069 -4.207,3.87 -7.533,5.291l-62.847 26.866 0 0c-2.816,1.201 -6.084,-0.081 -7.299,-2.865 -2.159,-5.014 2.623,-7.874 5.438,-9.076l54.819 -22.868c3.211,-1.372 8.274,-4.991 5.672,-7.898 -6.074,-6.784 -22.195,-12.04 -31.367,-12.656 -13.567,-0.911 -26.506,7.04 -38.977,12.371z"/>
    <path class="fil1" d="M259.865 254.626c1.256,0.537 2.523,0.941 3.795,1.209 1.274,0.269 2.555,0.404 3.84,0.404 1.284,0 2.566,-0.135 3.839,-0.404 1.272,-0.268 2.539,-0.672 3.796,-1.209l149.718 -64.033c0.82,-0.35 1.557,-0.796 2.199,-1.319 0.652,-0.531 1.209,-1.143 1.658,-1.818 0.437,-0.658 0.776,-1.398 1.004,-2.201 0.226,-0.791 0.344,-1.646 0.344,-2.547 0,-31.314 0.027,-62.563 0.027,-93.879 0.01,-0.119 -0.003,-0.209 -0.033,-0.273 -0.024,-0.053 -0.063,-0.091 -0.111,-0.118 -0.059,-0.033 -0.137,-0.052 -0.224,-0.059 -0.269,-0.022 -0.599,0.065 -0.843,0.178 -48.924,21.744 -98.807,42.26 -148.122,63.35 -2.196,0.94 -4.401,1.645 -6.609,2.115 -2.215,0.472 -4.431,0.707 -6.643,0.707 -2.213,0 -4.43,-0.235 -6.644,-0.707 -2.207,-0.47 -4.413,-1.175 -6.609,-2.115 -53.089,-22.704 -106.103,-45.68 -159.29,-68.126 -1.77,-0.773 -3.064,-2.178 -3.726,-3.828 -0.663,-1.652 -0.696,-3.552 0.057,-5.315l0.022 -0.053c0.367,-0.839 0.879,-1.572 1.495,-2.181 0.639,-0.631 1.391,-1.131 2.207,-1.479l159.235 -68.103c2.196,-0.94 4.402,-1.645 6.609,-2.115 2.214,-0.471 4.431,-0.707 6.644,-0.707 2.212,0 4.429,0.236 6.643,0.707 2.208,0.47 4.413,1.175 6.609,2.115l123.944 53.008c1.039,0.443 2.07,1.094 2.926,1.883 0.838,0.772 1.511,1.681 1.863,2.664 0.358,0.999 0.386,2.071 -0.075,3.151 -0.227,0.533 -0.574,1.067 -1.058,1.592l-0.002 0.002c-1.731,1.84 -4.192,2.51 -6.754,2.554 -3.878,0.065 -7.995,-1.311 -10.114,-2.215l-116.347 -49.76c-1.257,-0.538 -2.524,-0.941 -3.796,-1.21 -1.273,-0.268 -2.554,-0.403 -3.839,-0.403 -2.566,0 -5.122,0.538 -7.635,1.613l-142.615 60.994c-0.114,0.071 -0.204,0.166 -0.267,0.276 -0.064,0.116 -0.1,0.249 -0.1,0.394 0,0.144 0.035,0.278 0.099,0.391 0.063,0.111 0.154,0.206 0.268,0.277l142.615 60.995c1.256,0.538 2.523,0.941 3.795,1.21 1.273,0.269 2.555,0.403 3.84,0.403 1.285,0 2.566,-0.134 3.839,-0.403 1.272,-0.269 2.539,-0.672 3.796,-1.21l159.235 -68.103c1.797,-0.767 3.738,-0.741 5.424,-0.08 1.686,0.662 3.118,1.961 3.894,3.74 0.195,0.447 0.34,0.904 0.436,1.362 0.081,0.387 0.128,0.778 0.142,1.168l0.006 0c0,35.223 0.028,70.378 0.028,105.593 0,2.255 -0.326,4.444 -0.95,6.52 -0.633,2.11 -1.574,4.104 -2.79,5.935 -1.206,1.814 -2.68,3.45 -4.391,4.858 -1.681,1.384 -3.59,2.55 -5.699,3.451l-149.718 64.033c-2.196,0.939 -4.402,1.645 -6.609,2.115 -2.214,0.471 -4.431,0.707 -6.643,0.707 -2.212,0 -4.43,-0.236 -6.644,-0.707 -2.207,-0.47 -4.413,-1.176 -6.609,-2.115l-149.717 -64.033c-2.109,-0.901 -4.018,-2.067 -5.699,-3.451 -1.711,-1.408 -3.185,-3.044 -4.391,-4.858 -1.216,-1.831 -2.157,-3.825 -2.79,-5.935 -0.624,-2.076 -0.95,-4.264 -0.95,-6.52l0 -71.727c0,-1.945 0.798,-3.707 2.088,-4.982 1.288,-1.274 3.068,-2.063 5.033,-2.063 1.965,0 3.745,0.789 5.033,2.063 1.29,1.275 2.088,3.037 2.088,4.982l0 71.727c0,0.901 0.118,1.756 0.344,2.547 0.228,0.803 0.567,1.543 1.004,2.201 0.45,0.675 1.006,1.287 1.658,1.818 0.642,0.523 1.379,0.969 2.199,1.319l149.718 64.033z"/>
   </g>
   <g>
    <path class="fil2" d="M269.248 337.73l-21.426 0c-0.373,0 -0.737,-0.028 -1.091,-0.085 -0.351,-0.055 -0.689,-0.14 -1.014,-0.252 -0.333,-0.116 -0.648,-0.26 -0.943,-0.433 -0.223,-0.129 -0.436,-0.277 -0.639,-0.442l-0.007 0.007 -0.188 -0.168c-0.259,-0.231 -0.488,-0.48 -0.687,-0.745 -0.199,-0.264 -0.366,-0.545 -0.501,-0.841 -0.137,-0.3 -0.24,-0.611 -0.308,-0.931 -0.069,-0.32 -0.103,-0.651 -0.103,-0.992l0 -0.251 0.012 0c0.015,-0.225 0.048,-0.449 0.1,-0.671 0.072,-0.301 0.18,-0.603 0.325,-0.903 0.132,-0.275 0.296,-0.549 0.49,-0.82 0.193,-0.269 0.417,-0.536 0.67,-0.799 0.263,-0.273 0.544,-0.515 0.839,-0.723 0.294,-0.207 0.606,-0.382 0.935,-0.524 0.33,-0.143 0.672,-0.251 1.024,-0.322 0.354,-0.072 0.716,-0.108 1.086,-0.108l53.692 0c0.361,0 0.713,0.03 1.056,0.09 0.341,0.06 0.674,0.151 0.998,0.273 0.326,0.121 0.637,0.272 0.93,0.451 0.293,0.178 0.573,0.387 0.837,0.625 0.272,0.242 0.511,0.503 0.717,0.781 0.207,0.278 0.38,0.572 0.52,0.881 0.141,0.313 0.247,0.638 0.317,0.976 0.071,0.337 0.106,0.686 0.106,1.044l0 0.252 -0.01 0c-0.014,0.258 -0.048,0.509 -0.102,0.755 -0.072,0.326 -0.18,0.639 -0.324,0.937 -0.141,0.291 -0.317,0.569 -0.526,0.834 -0.186,0.235 -0.398,0.458 -0.635,0.668l0 0.006 -0.089 0.076c-0.264,0.224 -0.544,0.421 -0.838,0.591 -0.293,0.17 -0.602,0.312 -0.923,0.425 -0.317,0.113 -0.646,0.197 -0.987,0.253 -0.341,0.057 -0.69,0.085 -1.047,0.085l-21.556 0 0 72.66c0,0.709 -0.124,1.37 -0.372,1.98 -0.125,0.307 -0.281,0.6 -0.467,0.877 -0.184,0.274 -0.402,0.535 -0.649,0.781 -0.246,0.246 -0.512,0.463 -0.795,0.649 -0.285,0.187 -0.586,0.342 -0.901,0.465 -0.31,0.122 -0.638,0.213 -0.982,0.275 -0.343,0.061 -0.696,0.092 -1.058,0.092 -0.362,0 -0.716,-0.03 -1.06,-0.09 -0.341,-0.06 -0.675,-0.151 -0.999,-0.272 -0.325,-0.121 -0.636,-0.273 -0.93,-0.452 -0.294,-0.179 -0.574,-0.388 -0.837,-0.625l-0.055 -0.053c-0.258,-0.237 -0.486,-0.49 -0.683,-0.756 -0.197,-0.268 -0.364,-0.552 -0.498,-0.849 -0.141,-0.311 -0.247,-0.636 -0.318,-0.975 -0.071,-0.338 -0.106,-0.688 -0.106,-1.047l0 -72.66z"/>
    <path class="fil2" d="M402.066 358.653c0,-1.145 0.037,-2.274 0.11,-3.386 0.073,-1.104 0.183,-2.189 0.329,-3.254 0.146,-1.066 0.33,-2.103 0.548,-3.11 0.218,-1.004 0.475,-1.993 0.77,-2.964 0.297,-0.974 0.631,-1.91 1.002,-2.805 0.373,-0.9 0.785,-1.766 1.235,-2.595 0.453,-0.834 0.944,-1.63 1.471,-2.388 0.527,-0.756 1.097,-1.481 1.706,-2.17 0.609,-0.691 1.26,-1.343 1.949,-1.955 0.691,-0.612 1.421,-1.185 2.19,-1.717 0.766,-0.53 1.572,-1.021 2.416,-1.473 0.845,-0.452 1.73,-0.865 2.65,-1.237 0.919,-0.373 1.881,-0.7 2.887,-0.98 1.003,-0.28 2.046,-0.513 3.127,-0.699 1.077,-0.184 2.192,-0.323 3.343,-0.415 1.153,-0.092 2.343,-0.138 3.569,-0.138 1.397,0 2.806,0.067 4.226,0.203 0.709,0.067 1.406,0.15 2.089,0.248 0.69,0.1 1.372,0.215 2.042,0.346 0.672,0.131 1.332,0.275 1.978,0.432 0.646,0.157 1.269,0.325 1.868,0.503 0.596,0.178 1.177,0.368 1.744,0.573 0.564,0.203 1.114,0.421 1.647,0.652 0.533,0.229 1.041,0.469 1.522,0.718 0.483,0.249 0.937,0.507 1.36,0.772 0.435,0.271 0.847,0.555 1.233,0.849 0.391,0.298 0.753,0.604 1.085,0.917l0.059 0.061c0.342,0.327 0.642,0.661 0.901,1 0.262,0.342 0.482,0.69 0.659,1.043 0.195,0.387 0.342,0.78 0.44,1.179 0.098,0.402 0.148,0.807 0.148,1.215 0,0.633 -0.117,1.226 -0.351,1.775 -0.116,0.275 -0.262,0.536 -0.436,0.781 -0.172,0.245 -0.374,0.476 -0.602,0.691 -0.229,0.217 -0.476,0.406 -0.74,0.568 -0.264,0.161 -0.545,0.296 -0.841,0.402l-0.096 0.029c-0.273,0.092 -0.56,0.161 -0.859,0.208 -0.303,0.047 -0.613,0.07 -0.929,0.07 -0.176,0 -0.353,-0.009 -0.531,-0.026 -0.175,-0.017 -0.345,-0.042 -0.509,-0.076 -0.174,-0.035 -0.34,-0.081 -0.498,-0.136 -0.08,-0.028 -0.159,-0.058 -0.235,-0.091l-0.006 0.01 -0.217 -0.113 -0.299 -0.162 -0.369 -0.212 -0.367 -0.219 -0.375 -0.233 -0.093 -0.064c-0.151,-0.127 -0.14,-0.119 -0.327,-0.187 -0.088,-0.028 -0.176,-0.062 -0.263,-0.1 -0.087,-0.038 -0.169,-0.078 -0.242,-0.119 -0.073,-0.041 -0.149,-0.09 -0.225,-0.143 -0.069,-0.047 -0.135,-0.099 -0.198,-0.153 -0.487,-0.31 -0.976,-0.602 -1.469,-0.875 -0.495,-0.275 -0.994,-0.531 -1.498,-0.769 -0.51,-0.241 -1.024,-0.462 -1.54,-0.664 -0.517,-0.202 -1.033,-0.382 -1.546,-0.541 -0.516,-0.159 -1.043,-0.298 -1.579,-0.417 -0.534,-0.118 -1.082,-0.218 -1.644,-0.298 -0.556,-0.08 -1.125,-0.139 -1.705,-0.179 -0.577,-0.04 -1.171,-0.06 -1.781,-0.06 -0.92,0 -1.8,0.032 -2.637,0.096 -0.841,0.064 -1.641,0.16 -2.4,0.286 -0.756,0.128 -1.476,0.286 -2.157,0.474 -0.681,0.188 -1.326,0.407 -1.932,0.656 -0.606,0.249 -1.183,0.526 -1.73,0.829 -0.543,0.302 -1.061,0.634 -1.549,0.994 -0.481,0.354 -0.933,0.735 -1.355,1.143 -0.425,0.41 -0.82,0.847 -1.184,1.309l-0.052 0.062c-0.357,0.457 -0.692,0.941 -1.002,1.448 -0.312,0.51 -0.597,1.041 -0.854,1.589 -0.262,0.559 -0.5,1.148 -0.713,1.768 -0.211,0.615 -0.397,1.257 -0.556,1.926l-0.023 0.083c-0.158,0.666 -0.296,1.353 -0.414,2.059 -0.119,0.714 -0.218,1.45 -0.297,2.208 -0.082,0.77 -0.142,1.567 -0.182,2.391 -0.04,0.815 -0.06,1.668 -0.06,2.557l0 0.252 -0.005 0 0 25.544 0.005 0 0 0.252c0,0.869 0.02,1.705 0.06,2.508 0.04,0.811 0.1,1.6 0.182,2.366 0.08,0.762 0.181,1.508 0.304,2.238 0.122,0.724 0.265,1.435 0.43,2.132 0.159,0.678 0.345,1.326 0.556,1.944 0.212,0.622 0.45,1.214 0.713,1.775 0.261,0.556 0.551,1.092 0.87,1.604 0.317,0.511 0.661,0.997 1.029,1.456 0.364,0.452 0.759,0.88 1.183,1.283 0.423,0.401 0.877,0.778 1.36,1.129 0.49,0.356 1.008,0.685 1.554,0.986 0.548,0.303 1.126,0.58 1.73,0.828 0.606,0.249 1.252,0.468 1.934,0.656 0.681,0.188 1.4,0.346 2.157,0.473 0.759,0.126 1.56,0.222 2.4,0.286 0.838,0.064 1.716,0.095 2.635,0.095 2.411,0 4.665,-0.301 6.762,-0.904 1.045,-0.3 2.052,-0.675 3.02,-1.124 0.968,-0.45 1.899,-0.974 2.789,-1.571l1.418 -0.856c0.32,-0.213 0.628,-0.402 0.921,-0.563 0.298,-0.164 0.586,-0.304 0.863,-0.418 0.315,-0.129 0.617,-0.226 0.905,-0.291 0.294,-0.066 0.574,-0.099 0.838,-0.099 0.692,0 1.327,0.111 1.906,0.332 0.296,0.113 0.578,0.256 0.843,0.428 0.267,0.173 0.513,0.374 0.74,0.6l0.003 0.004c0.22,0.219 0.414,0.451 0.582,0.693 0.168,0.24 0.309,0.494 0.425,0.757 0.118,0.272 0.207,0.55 0.266,0.834 0.059,0.287 0.089,0.579 0.089,0.875 0,0.429 -0.049,0.85 -0.146,1.263 -0.096,0.412 -0.24,0.816 -0.433,1.21 -0.184,0.376 -0.413,0.744 -0.685,1.102 -0.273,0.359 -0.587,0.707 -0.943,1.042 -0.335,0.317 -0.696,0.622 -1.083,0.914 -0.386,0.291 -0.8,0.572 -1.24,0.842 -0.426,0.261 -0.883,0.514 -1.37,0.758 -0.484,0.242 -0.993,0.474 -1.525,0.693 -0.519,0.215 -1.064,0.421 -1.635,0.619 -0.566,0.196 -1.151,0.382 -1.753,0.555 -0.619,0.179 -1.244,0.344 -1.873,0.494 -0.628,0.15 -1.281,0.292 -1.958,0.422 -0.67,0.131 -1.351,0.246 -2.04,0.346 -0.683,0.098 -1.381,0.182 -2.091,0.25 -0.709,0.067 -1.416,0.118 -2.118,0.151 -0.714,0.034 -1.417,0.051 -2.108,0.051 -1.226,0 -2.416,-0.046 -3.57,-0.138 -1.15,-0.092 -2.265,-0.231 -3.342,-0.416 -1.078,-0.185 -2.119,-0.417 -3.122,-0.697 -1.003,-0.279 -1.966,-0.606 -2.888,-0.978 -0.92,-0.372 -1.804,-0.785 -2.652,-1.239 -0.845,-0.452 -1.652,-0.944 -2.418,-1.474 -0.77,-0.533 -1.499,-1.106 -2.19,-1.717 -0.689,-0.612 -1.34,-1.264 -1.949,-1.955 -0.607,-0.687 -1.175,-1.409 -1.705,-2.168 -0.531,-0.759 -1.023,-1.552 -1.473,-2.378 -0.452,-0.826 -0.864,-1.685 -1.237,-2.575 -0.37,-0.888 -0.704,-1.812 -0.999,-2.771 -0.294,-0.959 -0.551,-1.939 -0.77,-2.94 -0.219,-1 -0.402,-2.031 -0.548,-3.092 -0.146,-1.058 -0.256,-2.141 -0.329,-3.245 -0.074,-1.11 -0.11,-2.239 -0.11,-3.385l0 -0.252 0.004 0 0.001 -25.544 -0.005 0 0 -0.252z"/>
    <path class="fil2" d="M497.687 375.498l-6.169 7.202 0 27.991c0,0.354 -0.033,0.7 -0.099,1.034 -0.066,0.336 -0.164,0.66 -0.294,0.971 -0.13,0.311 -0.292,0.608 -0.486,0.89 -0.192,0.281 -0.417,0.549 -0.673,0.804 -0.259,0.255 -0.532,0.479 -0.821,0.67 -0.289,0.192 -0.596,0.353 -0.918,0.482 -0.318,0.128 -0.652,0.225 -0.998,0.289 -0.346,0.065 -0.702,0.097 -1.066,0.097 -0.364,0 -0.721,-0.032 -1.067,-0.097 -0.346,-0.064 -0.679,-0.161 -0.999,-0.289 -0.321,-0.128 -0.627,-0.289 -0.914,-0.481 -0.287,-0.19 -0.561,-0.413 -0.816,-0.667 -0.258,-0.255 -0.484,-0.524 -0.677,-0.804 -0.195,-0.284 -0.358,-0.581 -0.488,-0.89l-0.023 -0.059c-0.122,-0.302 -0.215,-0.617 -0.276,-0.943 -0.062,-0.327 -0.094,-0.664 -0.094,-1.007l0 -78.265c0,-0.675 0.134,-1.319 0.402,-1.931 0.13,-0.297 0.292,-0.585 0.486,-0.862 0.191,-0.274 0.414,-0.537 0.665,-0.787 0.257,-0.254 0.53,-0.479 0.819,-0.671 0.288,-0.191 0.595,-0.352 0.917,-0.482 0.319,-0.127 0.652,-0.224 0.998,-0.288 0.347,-0.065 0.703,-0.097 1.067,-0.097 0.364,0 0.72,0.032 1.066,0.097 0.346,0.063 0.68,0.161 0.998,0.288 0.323,0.129 0.628,0.291 0.918,0.482 0.289,0.192 0.563,0.416 0.82,0.67 0.252,0.251 0.474,0.515 0.666,0.79 0.193,0.277 0.354,0.563 0.484,0.86 0.134,0.306 0.235,0.62 0.301,0.941 0.068,0.324 0.102,0.654 0.102,0.99l0 34.849 32.295 -37.509c0.126,-0.164 0.264,-0.324 0.412,-0.478 0.147,-0.152 0.307,-0.301 0.479,-0.445 0.176,-0.149 0.359,-0.288 0.548,-0.417 0.188,-0.13 0.389,-0.253 0.6,-0.371 0.224,-0.124 0.449,-0.232 0.674,-0.325 0.229,-0.094 0.458,-0.171 0.684,-0.232 0.471,-0.127 0.948,-0.19 1.428,-0.19 0.256,0 0.518,0.025 0.784,0.076 0.261,0.05 0.528,0.125 0.797,0.226 0.253,0.094 0.504,0.208 0.753,0.342 0.248,0.135 0.499,0.29 0.748,0.466l0.047 0.036c0.296,0.216 0.551,0.464 0.766,0.744 0.215,0.281 0.39,0.596 0.525,0.943 0.126,0.324 0.214,0.675 0.265,1.05 0.049,0.373 0.06,0.769 0.035,1.188l0 0.023c-0.025,0.313 -0.07,0.616 -0.134,0.91 -0.064,0.296 -0.148,0.584 -0.251,0.863 -0.103,0.278 -0.227,0.55 -0.371,0.816 -0.143,0.264 -0.306,0.519 -0.488,0.763 -0.059,0.08 -0.126,0.151 -0.197,0.209 -0.061,0.05 -0.125,0.093 -0.193,0.13l-27.147 31.479 29.808 40.387c0.079,0.106 0.138,0.223 0.177,0.343 0.035,0.105 0.053,0.215 0.057,0.325 0.039,0.089 0.074,0.177 0.106,0.265 0.038,0.105 0.073,0.212 0.103,0.318 0.056,0.202 0.1,0.408 0.128,0.616 0.029,0.21 0.044,0.419 0.044,0.625 0,0.573 -0.076,1.146 -0.225,1.718 -0.15,0.567 -0.373,1.131 -0.67,1.692 -0.185,0.35 -0.415,0.659 -0.687,0.924 -0.272,0.264 -0.587,0.485 -0.943,0.66 -0.328,0.162 -0.687,0.283 -1.077,0.363 -0.388,0.08 -0.803,0.12 -1.247,0.12 -0.264,0 -0.523,-0.012 -0.777,-0.037 -0.256,-0.025 -0.495,-0.061 -0.718,-0.11l-0.046 -0.01c-0.234,-0.053 -0.456,-0.12 -0.664,-0.199 -0.211,-0.08 -0.411,-0.175 -0.599,-0.283 -0.176,-0.102 -0.344,-0.211 -0.503,-0.328 -0.167,-0.122 -0.323,-0.249 -0.47,-0.381 -0.149,-0.134 -0.293,-0.278 -0.432,-0.43 -0.138,-0.152 -0.272,-0.314 -0.398,-0.481l-0.056 -0.082 -27.801 -38.089z"/>
    <path class="fil2" d="M100.491 372.742c-0.052,-0.372 -0.064,-0.759 -0.038,-1.161 0,-0.69 -0.047,-37.698 0,-38.571 0.025,-0.457 0.088,-0.888 0.19,-1.293 0.101,-0.407 0.243,-0.79 0.423,-1.149 0.187,-0.372 0.412,-0.712 0.676,-1.019 0.263,-0.307 0.566,-0.584 0.907,-0.829l0.004 -0.003c0.309,-0.223 0.626,-0.418 0.948,-0.586 0.323,-0.168 0.652,-0.308 0.983,-0.421 0.341,-0.116 0.688,-0.203 1.04,-0.261 0.352,-0.059 0.706,-0.088 1.061,-0.088l36.304 0.001c0.34,-0.001 0.677,0.019 1.012,0.061 0.334,0.041 0.665,0.102 0.993,0.184 0.322,0.08 0.642,0.182 0.959,0.303 0.317,0.123 0.629,0.265 0.931,0.424l0.003 0.001c0.368,0.195 0.692,0.431 0.971,0.706 0.282,0.277 0.517,0.594 0.706,0.949 0.179,0.338 0.314,0.706 0.403,1.102 0.089,0.396 0.133,0.82 0.133,1.271l0 0.252 -0.01 0c-0.015,0.384 -0.064,0.803 -0.147,1.193 -0.092,0.431 -0.227,0.837 -0.405,1.139l-0.039 0.062c-0.191,0.309 -0.425,0.587 -0.7,0.831 -0.274,0.241 -0.589,0.45 -0.944,0.624 -0.302,0.15 -0.61,0.282 -0.925,0.394 -0.317,0.114 -0.637,0.208 -0.958,0.282 -0.324,0.075 -0.653,0.131 -0.983,0.168 -0.333,0.038 -0.667,0.057 -1,0.057l-32.912 -0.001 0.035 27.689c2.385,-1.14 4.814,-2.163 7.315,-2.911 2.636,-0.789 5.349,-1.274 8.167,-1.274 6.543,0 12.562,1.892 17.186,5.559 4.338,3.441 7.445,8.439 8.598,14.899l0.005 0.034c1.131,6.37 0.44,13.163 -2.107,19.042 -2.338,5.396 -6.238,10.023 -11.729,12.854 -4.042,2.085 -9.924,2.817 -15.851,2.573 -6.5,-0.267 -13.07,-1.709 -17.338,-3.825l-0.003 0.004 -0.224 -0.114c-0.585,-0.298 -1.103,-0.629 -1.551,-0.991 -0.452,-0.365 -0.834,-0.761 -1.143,-1.186 -0.327,-0.45 -0.573,-0.932 -0.738,-1.442 -0.164,-0.511 -0.247,-1.048 -0.247,-1.61 0,-0.329 0.03,-0.652 0.089,-0.968 0.06,-0.315 0.149,-0.621 0.267,-0.917 0.117,-0.292 0.263,-0.573 0.437,-0.841 0.174,-0.269 0.376,-0.524 0.604,-0.766 0.236,-0.249 0.489,-0.469 0.761,-0.658 0.273,-0.191 0.562,-0.35 0.863,-0.475 0.601,-0.25 1.254,-0.375 1.955,-0.375 0.184,0 0.388,0.02 0.611,0.06 0.218,0.04 0.449,0.098 0.692,0.174l0.025 0.008 0.023 0.013c5.44,3.053 11.492,4.746 17.044,4.746 3.424,0 6.655,-0.644 9.432,-2.007 2.768,-1.36 5.089,-3.439 6.702,-6.313 1.566,-2.792 2.468,-6.338 2.468,-10.71 0,-5.177 -1.664,-9.658 -4.715,-12.8 -2.922,-3.009 -7.125,-4.796 -12.367,-4.796 -4.972,0 -8.656,1.977 -12.771,4.185 -0.727,0.391 -1.47,0.789 -2.243,1.189l-0.432 0.282c-0.137,0.09 -0.29,0.184 -0.453,0.283l-0.472 0.279 -0.461 0.257c-0.195,0.106 -0.396,0.199 -0.601,0.276 -0.207,0.079 -0.421,0.144 -0.639,0.195 -0.212,0.05 -0.432,0.087 -0.659,0.112 -0.225,0.026 -0.454,0.039 -0.683,0.039 -0.36,0 -0.716,-0.032 -1.066,-0.097 -0.346,-0.063 -0.683,-0.158 -1.013,-0.285 -0.328,-0.125 -0.642,-0.282 -0.942,-0.467 -0.298,-0.185 -0.585,-0.401 -0.858,-0.645l-0.002 -0.002c-0.291,-0.259 -0.543,-0.541 -0.757,-0.846 -0.214,-0.306 -0.388,-0.633 -0.522,-0.981 -0.132,-0.34 -0.225,-0.699 -0.278,-1.072z"/>
    <path class="fil2" d="M72.467 411.046c0,0.34 -0.034,0.67 -0.102,0.991 -0.068,0.32 -0.172,0.63 -0.31,0.931 -0.133,0.294 -0.301,0.573 -0.499,0.837 -0.175,0.234 -0.377,0.457 -0.603,0.668l0 0.006 -0.085 0.075c-0.255,0.228 -0.523,0.428 -0.8,0.597 -0.281,0.171 -0.575,0.315 -0.881,0.431 -0.307,0.115 -0.624,0.202 -0.949,0.26 -0.324,0.057 -0.658,0.086 -1,0.086 -0.711,0 -1.393,-0.112 -2.042,-0.337 -0.324,-0.112 -0.637,-0.252 -0.934,-0.418 -0.299,-0.167 -0.585,-0.361 -0.858,-0.581 -0.285,-0.231 -0.538,-0.478 -0.756,-0.741 -0.219,-0.263 -0.405,-0.544 -0.554,-0.84 -0.154,-0.304 -0.27,-0.621 -0.346,-0.948 -0.077,-0.328 -0.115,-0.667 -0.115,-1.017l0 -57.936c-2.013,4.049 -4.049,8.086 -6.076,12.128l-2.941 5.9 -2.95 5.905c-2.385,4.752 -4.765,9.506 -7.133,14.268 -0.352,0.713 -0.831,1.865 -1.234,2.492 -0.284,0.485 -0.602,0.913 -0.956,1.282 -0.355,0.37 -0.746,0.682 -1.171,0.932 -0.431,0.254 -0.892,0.446 -1.384,0.572 -0.491,0.127 -1.009,0.191 -1.554,0.191 -0.567,0 -1.101,-0.063 -1.6,-0.19 -0.503,-0.126 -0.971,-0.318 -1.403,-0.573 -0.433,-0.255 -0.825,-0.572 -1.173,-0.95 -0.347,-0.376 -0.652,-0.811 -0.913,-1.306l-20.435 -40.717 0 58.002c0,0.344 -0.037,0.679 -0.11,1.005 -0.073,0.325 -0.182,0.639 -0.327,0.94 -0.14,0.291 -0.316,0.569 -0.525,0.834 -0.185,0.233 -0.397,0.456 -0.635,0.667l0 0.006 -0.089 0.076c-0.266,0.226 -0.551,0.425 -0.852,0.595 -0.302,0.171 -0.621,0.313 -0.954,0.427 -0.324,0.11 -0.665,0.193 -1.021,0.249 -0.356,0.055 -0.721,0.083 -1.095,0.083 -0.339,0 -0.673,-0.029 -1,-0.088 -0.325,-0.058 -0.64,-0.146 -0.942,-0.263 -0.306,-0.118 -0.596,-0.264 -0.869,-0.438 -0.273,-0.173 -0.533,-0.376 -0.778,-0.607 -0.247,-0.232 -0.464,-0.482 -0.652,-0.746 -0.187,-0.264 -0.346,-0.545 -0.474,-0.841 -0.129,-0.296 -0.225,-0.604 -0.29,-0.921 -0.064,-0.319 -0.097,-0.646 -0.097,-0.978l0 -78.261c0,-0.39 0.034,-0.768 0.102,-1.132 0.067,-0.365 0.168,-0.713 0.301,-1.041 0.137,-0.335 0.31,-0.654 0.517,-0.954 0.206,-0.299 0.447,-0.578 0.719,-0.835 0.27,-0.254 0.561,-0.478 0.87,-0.668 0.308,-0.189 0.639,-0.348 0.991,-0.476 0.341,-0.123 0.699,-0.216 1.074,-0.279 0.373,-0.061 0.76,-0.092 1.159,-0.092 0.61,0 1.187,0.071 1.733,0.214 0.546,0.142 1.057,0.357 1.531,0.642 0.406,0.245 0.783,0.542 1.13,0.891 0.335,0.337 0.641,0.722 0.918,1.154 0.067,0.056 0.128,0.122 0.181,0.193 0.062,0.082 0.112,0.17 0.151,0.264l24.98 50.448 24.897 -50.637c0.045,-0.092 0.099,-0.175 0.161,-0.247 0.054,-0.064 0.115,-0.121 0.18,-0.172 0.126,-0.18 0.255,-0.351 0.387,-0.511 0.143,-0.173 0.289,-0.335 0.439,-0.485 0.211,-0.212 0.429,-0.403 0.657,-0.573 0.229,-0.171 0.464,-0.321 0.706,-0.448l0.062 -0.03c0.229,-0.117 0.461,-0.219 0.693,-0.304 0.237,-0.088 0.48,-0.161 0.726,-0.219 0.255,-0.059 0.516,-0.105 0.784,-0.135 0.269,-0.03 0.539,-0.045 0.811,-0.045 0.367,0 0.726,0.033 1.077,0.1 0.351,0.066 0.692,0.168 1.02,0.3 0.328,0.132 0.644,0.297 0.946,0.493 0.302,0.196 0.589,0.423 0.862,0.68 0.278,0.263 0.525,0.543 0.736,0.839 0.211,0.296 0.389,0.608 0.533,0.937 0.144,0.33 0.252,0.673 0.325,1.03 0.072,0.356 0.108,0.723 0.108,1.098l0 78.261z"/>
    <path class="fil2" d="M319.299 400.779l19.984 -59.697 2.375 -7.095c0.131,-0.438 0.276,-0.864 0.436,-1.277 0.159,-0.412 0.33,-0.808 0.513,-1.186 0.185,-0.381 0.383,-0.747 0.593,-1.094 0.212,-0.35 0.433,-0.677 0.664,-0.982 0.27,-0.357 0.578,-0.673 0.921,-0.945 0.341,-0.271 0.717,-0.497 1.126,-0.677 0.394,-0.173 0.816,-0.303 1.265,-0.389 0.448,-0.086 0.923,-0.129 1.423,-0.129 0.48,0 0.94,0.045 1.378,0.135 0.44,0.091 0.855,0.227 1.245,0.407 0.397,0.185 0.767,0.415 1.107,0.691 0.339,0.274 0.649,0.594 0.928,0.957l0.004 0.005c0.241,0.313 0.471,0.64 0.689,0.981 0.22,0.341 0.429,0.697 0.628,1.067 0.192,0.36 0.379,0.739 0.558,1.137 0.176,0.394 0.343,0.803 0.501,1.227l25.094 74.968 0.035 0.127 0.031 0 0 0.251c0,0.078 0.002,0.145 0.007,0.196l0.001 0.004c0.006,0.083 0.016,0.156 0.026,0.229l0.053 0.437 0.019 0.211 0.015 0.249 0.006 0.222c0,0.378 -0.035,0.741 -0.105,1.088 -0.069,0.349 -0.174,0.682 -0.314,0.998 -0.141,0.321 -0.319,0.623 -0.53,0.902 -0.211,0.279 -0.457,0.538 -0.738,0.777 -0.264,0.224 -0.548,0.423 -0.852,0.595 -0.301,0.171 -0.62,0.313 -0.952,0.427 -0.324,0.11 -0.665,0.193 -1.02,0.249 -0.357,0.055 -0.722,0.083 -1.096,0.083 -0.246,0 -0.5,-0.021 -0.758,-0.064 -0.255,-0.042 -0.514,-0.106 -0.774,-0.19 -0.248,-0.08 -0.497,-0.179 -0.747,-0.296 -0.253,-0.118 -0.5,-0.252 -0.741,-0.401l-0.061 -0.04c-0.255,-0.161 -0.491,-0.337 -0.707,-0.527 -0.217,-0.193 -0.413,-0.399 -0.586,-0.618 -0.18,-0.228 -0.338,-0.475 -0.472,-0.737 -0.132,-0.255 -0.24,-0.526 -0.324,-0.812l-5.525 -16.771 -32.172 0 -5.404 16.771 -0.047 0.123c-0.017,0.039 -0.037,0.078 -0.059,0.117l-0.001 0.003c-0.128,0.215 -0.269,0.426 -0.423,0.631 -0.154,0.203 -0.322,0.404 -0.505,0.6 -0.18,0.192 -0.371,0.379 -0.571,0.558 -0.203,0.181 -0.418,0.356 -0.641,0.523l-0.06 0.04c-0.232,0.171 -0.462,0.321 -0.687,0.449 -0.225,0.13 -0.449,0.24 -0.672,0.33 -0.253,0.103 -0.506,0.18 -0.756,0.232 -0.254,0.053 -0.503,0.079 -0.746,0.079 -0.712,0 -1.394,-0.112 -2.043,-0.337 -0.326,-0.113 -0.639,-0.254 -0.937,-0.42 -0.299,-0.167 -0.586,-0.362 -0.859,-0.583 -0.29,-0.236 -0.547,-0.494 -0.768,-0.773 -0.222,-0.281 -0.408,-0.582 -0.557,-0.902 -0.147,-0.318 -0.258,-0.654 -0.333,-1.007 -0.073,-0.351 -0.11,-0.717 -0.11,-1.097 0,-0.162 0.007,-0.328 0.02,-0.494 0.013,-0.159 0.033,-0.326 0.061,-0.496l0.001 -0.008c0.027,-0.169 0.06,-0.331 0.099,-0.484 0.039,-0.155 0.086,-0.309 0.141,-0.462l0.401 -1.199 0 0.001 2.306 -6.889 -0.001 0.001zm16.32 -15.43l25.835 0 -12.86 -40.004 -12.975 40.004z"/>
    <path class="fil2" d="M214.906 391.301c0,-0.473 -0.015,-0.924 -0.044,-1.354 -0.029,-0.434 -0.073,-0.851 -0.131,-1.25 -0.058,-0.392 -0.13,-0.771 -0.217,-1.138 -0.086,-0.364 -0.187,-0.712 -0.3,-1.043 -0.117,-0.342 -0.242,-0.672 -0.373,-0.987 -0.131,-0.317 -0.269,-0.617 -0.412,-0.901 -0.142,-0.28 -0.291,-0.551 -0.448,-0.807 -0.156,-0.257 -0.32,-0.502 -0.489,-0.733 -0.173,-0.234 -0.349,-0.459 -0.53,-0.672 -0.183,-0.217 -0.369,-0.42 -0.556,-0.61 -0.189,-0.192 -0.382,-0.373 -0.577,-0.543 -0.198,-0.171 -0.396,-0.33 -0.596,-0.475 -0.213,-0.156 -0.428,-0.306 -0.644,-0.45 -0.215,-0.144 -0.424,-0.278 -0.628,-0.401 -0.191,-0.116 -0.389,-0.23 -0.592,-0.339 -0.199,-0.107 -0.396,-0.208 -0.591,-0.3 -0.326,-0.154 -0.665,-0.308 -1.016,-0.46 -0.337,-0.148 -0.704,-0.302 -1.098,-0.463 -0.43,-0.175 -0.835,-0.337 -1.214,-0.481 -0.429,-0.164 -0.839,-0.317 -1.228,-0.457l-2.684 -0.952 -1.241 -0.433c-0.5,-0.172 -1.007,-0.34 -1.504,-0.518 -0.676,-0.212 -1.351,-0.43 -2.026,-0.653 -0.642,-0.213 -1.342,-0.45 -2.105,-0.713 -0.741,-0.256 -1.443,-0.505 -2.105,-0.744 -0.693,-0.25 -1.37,-0.501 -2.03,-0.75 -0.701,-0.265 -1.393,-0.553 -2.073,-0.864 -0.678,-0.309 -1.34,-0.64 -1.986,-0.992 -0.645,-0.35 -1.274,-0.721 -1.882,-1.111 -0.536,-0.343 -1.062,-0.705 -1.578,-1.085l-0.003 0.005 -0.207 -0.155c-0.588,-0.439 -1.15,-0.913 -1.685,-1.419 -0.533,-0.503 -1.04,-1.041 -1.522,-1.613 -0.479,-0.569 -0.926,-1.165 -1.341,-1.786 -0.418,-0.627 -0.803,-1.278 -1.154,-1.951l-0.034 -0.074c-0.353,-0.685 -0.662,-1.414 -0.927,-2.186 -0.263,-0.767 -0.483,-1.581 -0.659,-2.44 -0.176,-0.86 -0.31,-1.765 -0.398,-2.713 -0.089,-0.949 -0.134,-1.935 -0.134,-2.953 0,-1.876 0.148,-3.652 0.443,-5.328 0.295,-1.677 0.739,-3.256 1.331,-4.733 0.596,-1.489 1.343,-2.873 2.238,-4.149 0.895,-1.277 1.94,-2.447 3.133,-3.508 1.182,-1.055 2.477,-1.979 3.882,-2.772 1.404,-0.792 2.914,-1.451 4.529,-1.977 1.601,-0.521 3.307,-0.912 5.116,-1.172 1.809,-0.26 3.72,-0.39 5.731,-0.39 0.35,0 0.757,0.007 1.22,0.02 0.449,0.013 0.927,0.033 1.435,0.059l0.009 0c0.523,0.027 1.054,0.059 1.593,0.095 0.56,0.038 1.126,0.081 1.7,0.128 0.604,0.05 1.207,0.112 1.809,0.186 0.594,0.072 1.198,0.159 1.809,0.259 0.595,0.096 1.184,0.205 1.765,0.324 0.587,0.12 1.165,0.251 1.733,0.392l0.007 0.002c0.584,0.145 1.146,0.303 1.683,0.473 0.54,0.171 1.064,0.357 1.569,0.555 0.508,0.201 0.996,0.415 1.463,0.641 0.464,0.227 0.914,0.469 1.343,0.725 0.477,0.285 0.898,0.593 1.26,0.926 0.365,0.336 0.674,0.698 0.924,1.084 0.265,0.407 0.464,0.836 0.596,1.287 0.133,0.452 0.2,0.923 0.2,1.413 0,0.316 -0.03,0.626 -0.091,0.929 -0.06,0.303 -0.151,0.599 -0.271,0.885 -0.116,0.276 -0.262,0.547 -0.438,0.81 -0.173,0.261 -0.375,0.513 -0.605,0.755l-0.061 0.059c-0.238,0.242 -0.499,0.454 -0.78,0.634 -0.285,0.183 -0.591,0.334 -0.919,0.454 -0.324,0.119 -0.67,0.208 -1.039,0.268 -0.368,0.06 -0.752,0.089 -1.152,0.089 -0.185,0 -0.381,-0.007 -0.586,-0.022 -0.199,-0.014 -0.409,-0.037 -0.629,-0.066 -0.21,-0.028 -0.421,-0.064 -0.63,-0.104 -0.212,-0.041 -0.428,-0.09 -0.646,-0.143 -0.216,-0.054 -0.428,-0.111 -0.634,-0.172 -0.208,-0.062 -0.416,-0.129 -0.623,-0.202 -0.219,-0.076 -0.422,-0.153 -0.609,-0.229 -0.203,-0.084 -0.389,-0.166 -0.556,-0.245 -0.338,-0.13 -0.685,-0.257 -1.041,-0.383 -0.361,-0.127 -0.74,-0.256 -1.136,-0.385 -0.397,-0.129 -0.816,-0.261 -1.255,-0.394 -0.445,-0.134 -0.879,-0.26 -1.3,-0.378 -0.43,-0.12 -0.886,-0.226 -1.366,-0.316 -0.476,-0.09 -0.981,-0.167 -1.511,-0.228 -0.534,-0.062 -1.09,-0.108 -1.667,-0.139 -0.572,-0.03 -1.179,-0.045 -1.818,-0.045 -0.535,0 -1.058,0.014 -1.566,0.042 -0.516,0.028 -1.027,0.071 -1.533,0.128 -0.507,0.056 -1.01,0.128 -1.511,0.213 -0.5,0.085 -0.996,0.185 -1.488,0.299 -0.482,0.111 -0.95,0.241 -1.401,0.388 -0.455,0.148 -0.892,0.313 -1.309,0.493 -0.415,0.181 -0.82,0.381 -1.212,0.6 -0.39,0.217 -0.771,0.456 -1.145,0.716 -0.36,0.25 -0.702,0.522 -1.025,0.812 -0.325,0.293 -0.63,0.605 -0.915,0.936 -0.288,0.334 -0.56,0.692 -0.814,1.071 -0.254,0.378 -0.492,0.781 -0.712,1.207 -0.216,0.416 -0.407,0.864 -0.57,1.341 -0.164,0.48 -0.301,0.986 -0.41,1.519 -0.112,0.545 -0.196,1.123 -0.251,1.733 -0.056,0.605 -0.083,1.251 -0.083,1.938 0,0.511 0.016,0.997 0.047,1.457 0.031,0.461 0.08,0.904 0.143,1.326 0.063,0.416 0.141,0.808 0.232,1.175 0.091,0.369 0.198,0.716 0.317,1.036 0.125,0.338 0.26,0.664 0.401,0.977 0.142,0.315 0.29,0.612 0.443,0.892 0.148,0.271 0.306,0.533 0.471,0.783 0.166,0.249 0.337,0.484 0.515,0.705 0.177,0.22 0.361,0.431 0.552,0.633 0.187,0.198 0.38,0.387 0.578,0.565 0.198,0.178 0.396,0.342 0.595,0.49 0.199,0.15 0.404,0.29 0.615,0.419 0.234,0.147 0.474,0.29 0.711,0.434l0.624 0.367 0.586 0.33 0.551 0.298c0.333,0.147 0.69,0.302 1.07,0.464 0.38,0.162 0.761,0.322 1.141,0.477 0.349,0.143 0.741,0.3 1.174,0.47l1.319 0.512c0.474,0.181 0.923,0.349 1.343,0.503 0.447,0.163 0.871,0.315 1.272,0.455 0.398,0.138 0.829,0.285 1.294,0.438 0.443,0.147 0.882,0.289 1.315,0.424l0.012 0.005c0.658,0.212 1.328,0.435 2.012,0.667 0.664,0.224 1.355,0.463 2.071,0.715 0.704,0.246 1.389,0.492 2.054,0.734 0.691,0.251 1.373,0.504 2.045,0.757 0.701,0.265 1.392,0.556 2.072,0.873 0.674,0.315 1.335,0.656 1.981,1.021 0.651,0.367 1.279,0.754 1.881,1.16 0.609,0.41 1.197,0.841 1.762,1.291 0.574,0.459 1.126,0.947 1.651,1.463 0.524,0.512 1.024,1.054 1.499,1.623 0.468,0.561 0.914,1.153 1.335,1.773 0.418,0.618 0.811,1.261 1.175,1.928 0.375,0.689 0.704,1.417 0.984,2.183 0.28,0.767 0.513,1.574 0.697,2.417 0.181,0.831 0.319,1.707 0.41,2.626 0.092,0.918 0.138,1.872 0.138,2.858 0,0.998 -0.046,1.977 -0.138,2.939 -0.091,0.956 -0.228,1.888 -0.41,2.796 -0.183,0.911 -0.412,1.793 -0.686,2.644 -0.273,0.851 -0.593,1.674 -0.958,2.468l-0.024 0.049c-0.361,0.782 -0.756,1.535 -1.182,2.255 -0.426,0.721 -0.886,1.411 -1.377,2.071 -0.5,0.67 -1.034,1.31 -1.599,1.916 -0.566,0.607 -1.165,1.184 -1.798,1.728l-0.025 0.021c-0.622,0.534 -1.279,1.04 -1.971,1.515 -0.69,0.474 -1.412,0.917 -2.164,1.326 -0.751,0.409 -1.536,0.786 -2.352,1.131 -0.812,0.343 -1.659,0.655 -2.537,0.934 -0.88,0.281 -1.769,0.525 -2.667,0.732 -0.901,0.208 -1.818,0.382 -2.745,0.519 -0.935,0.138 -1.885,0.242 -2.85,0.311 -0.967,0.069 -1.946,0.104 -2.936,0.104 -0.486,0 -1.015,-0.009 -1.584,-0.028 -0.561,-0.018 -1.138,-0.044 -1.73,-0.08 -0.599,-0.036 -1.206,-0.08 -1.819,-0.131 -0.609,-0.052 -1.252,-0.114 -1.925,-0.185 -0.666,-0.072 -1.324,-0.154 -1.973,-0.248 -0.642,-0.093 -1.286,-0.199 -1.93,-0.317 -0.646,-0.118 -1.277,-0.247 -1.893,-0.386 -0.626,-0.141 -1.234,-0.291 -1.823,-0.45 -0.606,-0.163 -1.196,-0.342 -1.769,-0.535 -0.575,-0.193 -1.122,-0.399 -1.642,-0.616 -0.526,-0.22 -1.033,-0.454 -1.517,-0.703 -0.482,-0.249 -0.944,-0.512 -1.385,-0.789 -0.479,-0.301 -0.902,-0.621 -1.27,-0.961 -0.37,-0.34 -0.681,-0.701 -0.933,-1.079l-0.046 -0.076c-0.256,-0.398 -0.448,-0.813 -0.576,-1.243 -0.129,-0.431 -0.194,-0.878 -0.194,-1.338 0,-0.333 0.032,-0.66 0.095,-0.98 0.063,-0.32 0.157,-0.631 0.282,-0.933 0.123,-0.295 0.275,-0.581 0.458,-0.856 0.181,-0.273 0.392,-0.536 0.631,-0.787 0.243,-0.254 0.499,-0.479 0.764,-0.67 0.267,-0.194 0.548,-0.357 0.839,-0.488l0.065 -0.027c0.291,-0.125 0.59,-0.219 0.895,-0.282 0.31,-0.064 0.627,-0.096 0.949,-0.096 0.145,0 0.306,0.012 0.483,0.034 0.173,0.021 0.362,0.055 0.567,0.098 0.182,0.038 0.379,0.086 0.588,0.142 0.206,0.056 0.43,0.122 0.67,0.196l1.355 0.439c0.478,0.159 0.979,0.312 1.448,0.49 0.422,0.159 0.853,0.315 1.292,0.468 0.437,0.152 0.906,0.31 1.403,0.471 0.489,0.159 1.002,0.319 1.534,0.481 0.505,0.153 1.072,0.319 1.698,0.498 0.559,0.16 1.146,0.3 1.758,0.42 0.614,0.12 1.258,0.22 1.93,0.301 0.681,0.081 1.39,0.142 2.125,0.183 0.731,0.04 1.5,0.06 2.306,0.06 1.464,0 2.828,-0.082 4.091,-0.246 1.263,-0.164 2.431,-0.41 3.504,-0.738 1.045,-0.319 2.004,-0.719 2.875,-1.198 0.866,-0.476 1.645,-1.031 2.334,-1.663 0.689,-0.632 1.293,-1.329 1.809,-2.086 0.517,-0.758 0.947,-1.579 1.291,-2.461 0.349,-0.898 0.611,-1.866 0.787,-2.903 0.175,-1.038 0.263,-2.148 0.263,-3.329z"/>
   </g>
  </g>
 </g>
</svg>
