<?xml version="1.0" encoding="utf-8"?>
<!-- Generator: Adobe Illustrator 28.1.0, SVG Export Plug-In . SVG Version: 6.00 Build 0)  -->
<svg version="1.1" id="Layer_1" xmlns="http://www.w3.org/2000/svg" xmlns:xlink="http://www.w3.org/1999/xlink" x="0px" y="0px"
	 viewBox="0 0 345.5 37" style="enable-background:new 0 0 345.5 37;" xml:space="preserve">
<style type="text/css">
	.st0{fill:#F76902;}
	.st1{fill:#FFFFFF;}
</style>
<rect x="76.4" y="6" width="0.4" height="25"/>
<path class="st0" d="M39.6,8.7c0.4-1.1,1.8-1.1,3-1.1h0.2V6c0,0-4.4,0.1-5.8,0.1c-1.4,0-5.6-0.1-5.6-0.1v1.6h0.2c1.1,0,2.6,0,3,1.1
	c0.3,1.6,0.4,3.2,0.4,4.9v9.9c0.1,1.6-0.1,3.3-0.4,4.9c-0.4,1.1-1.8,1.1-3,1.1h-0.2V31c0,0,3.6-0.2,5.6-0.2c2.3,0,5.8,0.2,5.8,0.2
	v-1.6h-0.2c-1.1,0-2.6,0-3-1.1c-0.3-1.6-0.4-3.2-0.4-4.9v-9.9C39.1,11.9,39.3,10.3,39.6,8.7z"/>
<path class="st0" d="M46.1,6v6.5h1.5l0-0.2c0.1-4.2,1.8-4.4,5.4-4.4c0.1,0,0.2,0,0.4,0c0.9,0,1.8,0,2.1,0.3c0.1,0.1,0.2,0.3,0.2,0.5
	v17c0,2.5-0.4,3.6-3.9,3.7l-0.2,0V31c0,0,4.1-0.2,6.5-0.2c1.8,0,5.9,0.2,5.9,0.2v-1.5l-0.2,0c-3.6-0.1-3.9-1.2-3.9-3.7v-17
	c0-0.2,0.1-0.3,0.2-0.4c0.4-0.4,1.5-0.4,2.4-0.4c0.2,0,0.3,0,0.5,0c3.6,0,4.7,1,4.9,4.4l0,0.2h1.5V6c0,0-9,0.1-11.7,0.1
	S46.1,6,46.1,6z"/>
<path class="st0" d="M28,29.4c-1.4,0-2.7-0.7-3.5-1.8l-7.4-8.5c3.9-0.5,6.3-3.1,6.3-6.8c0.2-2.1-0.9-4.1-2.8-5.2
	c-1.9-0.9-3.9-1.3-5.9-1.2C13.9,6,12,6.1,10,6.1C7.8,6.1,3.4,6,3.4,6v1.6h0.3c1.2,0,2.5,0,2.9,1.1c0.3,1.5,0.4,3.1,0.3,4.6v10.2
	c0,1.3,0,2.7-0.1,4c0,0.3-0.1,0.6-0.2,0.9c-0.4,1.1-1.8,1.1-2.9,1.1H3.4V31c0,0,3.5-0.2,5.8-0.2c2,0,5.4,0.1,5.4,0.2v-1.6h-0.3
	c-1.2,0-2.5,0-2.9-1.1c-0.1-0.3-0.1-0.6-0.2-0.9c-0.1-1.2-0.2-2.5-0.1-3.7v-4.2c1.4,0,1.5,0.2,2.2,1c0.1,0.2,0.3,0.3,0.5,0.5
	l6.2,7.6l1.8,2.2c0,0,2-0.1,2.9-0.1c1.4,0,3.5,0.1,3.5,0.1v-1.5L28,29.4z M11.1,17.9c0,0,0-9,0-9.1c0-0.4,0-0.9,0.3-1
	c0.8-0.1,1.5-0.1,2.3,0c3.2,0,5,1.9,5,5.1c0,2.4-0.6,3.7-2,4.4C15.4,17.9,11.1,17.9,11.1,17.9z"/>
<path class="st1" d="M83.7,6h0.9l2.9,4.5c0.2,0.3,0.5,0.8,0.5,0.8h0V6h0.8v6.4h-0.8L85,8c-0.2-0.3-0.5-0.8-0.5-0.8h0v5.3h-0.8
	L83.7,6z"/>
<path class="st1" d="M92.7,11.8L92.7,11.8c-0.4,0.5-1,0.8-1.6,0.7c-0.9,0-1.6-0.4-1.6-1.3c0-1.1,0.9-1.3,2-1.5
	c0.7-0.1,1.1-0.2,1.1-0.7c0-0.5-0.4-0.8-1-0.8c-0.8,0-1.1,0.3-1.2,1h-0.7c0-0.9,0.6-1.6,1.9-1.6c1,0,1.7,0.4,1.7,1.5v2.2
	c0,0.4,0.1,0.6,0.5,0.5h0v0.5c-0.1,0.1-0.3,0.1-0.4,0.1C93.1,12.6,92.7,12.3,92.7,11.8C92.7,11.9,92.7,11.8,92.7,11.8 M92.7,10.8V10
	c-0.3,0.2-0.7,0.3-1.1,0.3c-0.7,0.1-1.3,0.3-1.3,0.9c0,0.6,0.5,0.8,1,0.8C92,12.1,92.7,11.5,92.7,10.8
	C92.7,10.8,92.7,10.8,92.7,10.8C92.7,10.8,92.7,10.8,92.7,10.8"/>
<path class="st1" d="M94,7.8h0.7V6.4h0.7v1.5h0.9v0.6h-0.9v3c0,0.3,0.2,0.4,0.5,0.4c0.1,0,0.3,0,0.4-0.1h0v0.6
	c-0.2,0-0.4,0.1-0.6,0.1c-0.6,0-1-0.2-1-0.9V8.4H94V7.8z"/>
<path class="st1" d="M97.1,6h0.7v0.9h-0.7V6z M97.1,7.8h0.7v4.7h-0.7V7.8z"/>
<path class="st1" d="M98.6,10.2c-0.1-1.2,0.8-2.3,2.1-2.4c1.2-0.1,2.3,0.8,2.4,2.1c0,0.1,0,0.3,0,0.4c0.1,1.2-0.8,2.3-2.1,2.4
	s-2.3-0.8-2.4-2.1C98.6,10.4,98.6,10.3,98.6,10.2 M102.3,10.2c0-1-0.5-1.8-1.5-1.8s-1.5,0.8-1.5,1.8s0.5,1.8,1.5,1.8
	S102.3,11.2,102.3,10.2"/>
<path class="st1" d="M104.5,8.4L104.5,8.4c0.4-0.5,0.9-0.7,1.5-0.7c0.8-0.1,1.5,0.5,1.6,1.2c0,0.1,0,0.2,0,0.3v3.3h-0.7V9.3
	c0-0.6-0.4-0.9-1.1-0.9c-0.7,0-1.3,0.5-1.3,1.2c0,0,0,0,0,0c0,0,0,0.1,0,0.1v2.9h-0.7V7.8h0.7V8.4z"/>
<path class="st1" d="M111.4,11.8L111.4,11.8c-0.4,0.5-1,0.8-1.6,0.7c-0.9,0-1.6-0.4-1.6-1.3c0-1.1,0.9-1.3,2-1.5
	c0.7-0.1,1.1-0.2,1.1-0.7c0-0.5-0.4-0.8-1-0.8c-0.8,0-1.1,0.3-1.2,1h-0.7c0-0.9,0.6-1.6,1.9-1.6c1,0,1.7,0.4,1.7,1.5v2.2
	c0,0.4,0.1,0.6,0.5,0.5h0v0.5c-0.1,0.1-0.3,0.1-0.4,0.1C111.8,12.6,111.4,12.3,111.4,11.8C111.4,11.9,111.4,11.8,111.4,11.8
	 M111.4,10.8V10c-0.3,0.2-0.7,0.3-1.1,0.3c-0.7,0.1-1.3,0.3-1.3,0.9c0,0.6,0.5,0.8,1,0.8C110.7,12.1,111.3,11.5,111.4,10.8
	C111.4,10.8,111.4,10.8,111.4,10.8C111.4,10.8,111.4,10.8,111.4,10.8"/>
<rect x="113.2" y="6" class="st1" width="0.7" height="6.4"/>
<polygon class="st1" points="116,6 121.1,6 121.1,6.7 119,6.7 119,12.5 118.2,12.5 118.2,6.7 116,6.7 "/>
<path class="st1" d="M120.6,10.2c-0.1-1.3,0.8-2.3,2.1-2.4c0,0,0,0,0,0c0,0,0.1,0,0.1,0c1.4,0,2.1,1.1,2.1,2.6h-3.6
	c0.1,0.9,0.6,1.7,1.5,1.7c0.6,0.1,1.2-0.4,1.3-1h0.7c-0.2,1-1,1.6-2,1.6c-1.2,0-2.3-1-2.3-2.2c0,0,0,0,0,0
	C120.6,10.3,120.6,10.2,120.6,10.2 M121.3,9.8h2.8c0-0.9-0.5-1.5-1.4-1.5C121.9,8.3,121.4,8.9,121.3,9.8"/>
<path class="st1" d="M125.4,10.2c-0.1-1.2,0.8-2.3,2.1-2.4c0,0,0,0,0,0c0.1,0,0.1,0,0.2,0c1-0.1,1.9,0.6,2,1.6h-0.7
	c-0.1-0.6-0.6-1.1-1.3-1c-1,0-1.5,0.8-1.5,1.8s0.5,1.8,1.5,1.8c0.6,0.1,1.2-0.4,1.3-1.1c0,0,0-0.1,0-0.1h0.7c0,1-0.9,1.8-1.9,1.8
	c0,0,0,0,0,0c0,0-0.1,0-0.1,0c-1.3,0-2.3-1-2.3-2.3c0,0,0,0,0,0C125.4,10.3,125.4,10.2,125.4,10.2"/>
<path class="st1" d="M131,8.4L131,8.4c0.4-0.5,0.9-0.7,1.5-0.7c0.8-0.1,1.5,0.5,1.6,1.2c0,0.1,0,0.2,0,0.3v3.3h-0.7V9.3
	c0-0.6-0.4-0.9-1.1-0.9c-0.7,0-1.3,0.5-1.3,1.2c0,0,0,0,0,0c0,0,0,0.1,0,0.1v2.9h-0.7V6h0.7V8.4z"/>
<path class="st1" d="M135.8,8.4L135.8,8.4c0.4-0.5,0.9-0.7,1.5-0.7c0.8-0.1,1.5,0.5,1.6,1.2c0,0.1,0,0.2,0,0.3v3.3h-0.7V9.3
	c0-0.6-0.4-0.9-1.1-0.9c-0.7,0-1.3,0.5-1.3,1.2c0,0,0,0,0,0c0,0,0,0.1,0,0.1v2.9H135V7.8h0.7V8.4z"/>
<path class="st1" d="M139.8,6h0.7v0.9h-0.7V6z M139.8,7.8h0.7v4.7h-0.7V7.8z"/>
<path class="st1" d="M141.3,10.2c-0.1-1.2,0.8-2.3,2.1-2.4c0,0,0,0,0,0c0.1,0,0.1,0,0.2,0c1-0.1,1.9,0.6,2,1.6h-0.7
	c-0.1-0.6-0.6-1.1-1.3-1c-1,0-1.5,0.8-1.5,1.8s0.5,1.8,1.5,1.8c0.6,0.1,1.2-0.4,1.3-1.1c0,0,0-0.1,0-0.1h0.7c0,1-0.9,1.8-1.9,1.8
	c0,0,0,0,0,0c0,0-0.1,0-0.1,0c-1.3,0-2.3-1-2.3-2.3c0,0,0,0,0,0C141.3,10.3,141.3,10.2,141.3,10.2"/>
<path class="st1" d="M149.1,11.8L149.1,11.8c-0.4,0.5-1,0.8-1.6,0.7c-0.9,0-1.6-0.4-1.6-1.3c0-1.1,0.9-1.3,2-1.5
	c0.7-0.1,1.1-0.2,1.1-0.7c0-0.5-0.4-0.8-1-0.8c-0.8,0-1.1,0.3-1.2,1h-0.7c0-0.9,0.6-1.6,1.9-1.6c1,0,1.7,0.4,1.7,1.5v2.2
	c0,0.4,0.1,0.6,0.5,0.5h0v0.5c-0.1,0.1-0.3,0.1-0.4,0.1C149.5,12.6,149.2,12.3,149.1,11.8C149.1,11.9,149.1,11.8,149.1,11.8
	 M149.2,10.8V10c-0.3,0.2-0.7,0.3-1.1,0.3c-0.7,0.1-1.3,0.3-1.3,0.9c0,0.6,0.5,0.8,1,0.8C148.5,12.1,149.1,11.5,149.2,10.8
	C149.1,10.8,149.1,10.8,149.2,10.8C149.2,10.8,149.2,10.8,149.2,10.8"/>
<rect x="150.9" y="6" class="st1" width="0.7" height="6.4"/>
<rect x="154.2" y="6" class="st1" width="0.8" height="6.4"/>
<path class="st1" d="M156.9,8.4L156.9,8.4c0.4-0.5,0.9-0.7,1.5-0.7c0.8-0.1,1.5,0.5,1.6,1.2c0,0.1,0,0.2,0,0.3v3.3h-0.7V9.3
	c0-0.6-0.4-0.9-1.1-0.9c-0.7,0-1.3,0.5-1.3,1.2c0,0,0,0,0,0c0,0,0,0.1,0,0.1v2.9h-0.7V7.8h0.7V8.4z"/>
<path class="st1" d="M160.6,11h0.7c0.1,0.8,0.6,1,1.3,1c0.8,0,1.1-0.3,1.1-0.8c0-0.5-0.4-0.7-1.2-0.8c-0.9-0.2-1.7-0.4-1.7-1.4
	c0-0.8,0.6-1.3,1.7-1.3c0.9-0.1,1.7,0.5,1.8,1.3c0,0,0,0,0,0c0,0,0,0.1,0,0.1h-0.7c-0.1-0.6-0.4-0.9-1.1-0.9c-0.7,0-0.9,0.3-0.9,0.7
	c0,0.5,0.4,0.6,1.3,0.8c0.9,0.2,1.7,0.4,1.7,1.5c0,0.9-0.8,1.4-1.8,1.4C161.4,12.6,160.7,12,160.6,11"/>
<path class="st1" d="M164.8,7.8h0.7V6.4h0.7v1.5h0.9v0.6h-0.9v3c0,0.3,0.2,0.4,0.5,0.4c0.1,0,0.3,0,0.4-0.1h0v0.6
	c-0.2,0-0.4,0.1-0.6,0.1c-0.6,0-1-0.2-1-0.9V8.4h-0.7L164.8,7.8z"/>
<path class="st1" d="M167.9,6h0.7v0.9h-0.7V6z M167.9,7.8h0.7v4.7h-0.7V7.8z"/>
<path class="st1" d="M169.3,7.8h0.7V6.4h0.7v1.5h0.9v0.6h-0.9v3c0,0.3,0.2,0.4,0.5,0.4c0.1,0,0.3,0,0.4-0.1h0v0.6
	c-0.2,0-0.4,0.1-0.6,0.1c-0.6,0-1-0.2-1-0.9V8.4h-0.7L169.3,7.8z"/>
<path class="st1" d="M175.3,12.5v-0.6h0c-0.3,0.5-0.8,0.8-1.4,0.7c-0.8,0.1-1.5-0.5-1.6-1.3c0-0.1,0-0.2,0-0.2V7.8h0.7V11
	c0,0.5,0.4,0.9,0.9,1c0.1,0,0.1,0,0.2,0c0.7,0,1.2-0.5,1.2-1.2c0,0,0-0.1,0-0.1V7.8h0.7v4.7H175.3z"/>
<path class="st1" d="M176.7,7.8h0.7V6.4h0.7v1.5h0.9v0.6h-0.9v3c0,0.3,0.2,0.4,0.5,0.4c0.1,0,0.3,0,0.4-0.1h0v0.6
	c-0.2,0-0.4,0.1-0.6,0.1c-0.6,0-1-0.2-1-0.9V8.4h-0.7L176.7,7.8z"/>
<path class="st1" d="M179.5,10.2c-0.1-1.3,0.8-2.3,2.1-2.4c0,0,0.1,0,0.1,0c1.4,0,2.1,1.1,2.1,2.6h-3.6c0.1,0.9,0.6,1.7,1.5,1.7
	c0.6,0.1,1.2-0.4,1.3-1h0.7c-0.2,1-1,1.6-2,1.6c-1.2,0-2.3-1-2.3-2.2c0,0,0,0,0,0C179.5,10.3,179.5,10.2,179.5,10.2 M180.2,9.8h2.8
	c0-0.9-0.5-1.5-1.4-1.5C180.8,8.3,180.3,8.9,180.2,9.8"/>
<path class="st1" d="M185.7,7.8h0.6V7.1c0-0.8,0.5-1.1,1.2-1.1c0.2,0,0.3,0,0.4,0v0.6c-0.1,0-0.2,0-0.2,0c-0.5,0-0.6,0.1-0.6,0.5
	v0.7h0.9v0.6H187v4.1h-0.7V8.4h-0.6V7.8z"/>
<path class="st1" d="M188.2,10.2c-0.1-1.2,0.8-2.3,2-2.4s2.3,0.8,2.4,2c0,0,0,0,0,0c0,0.1,0,0.3,0,0.4c0.1,1.2-0.8,2.3-2.1,2.4
	s-2.3-0.8-2.4-2.1l0,0C188.2,10.4,188.2,10.3,188.2,10.2 M192,10.2c0-1-0.5-1.8-1.5-1.8s-1.5,0.8-1.5,1.8s0.5,1.8,1.5,1.8
	S192,11.2,192,10.2"/>
<path class="st1" d="M194.2,8.6L194.2,8.6c0.3-0.5,0.8-0.8,1.4-0.8c0.1,0,0.2,0,0.3,0.1v0.7h0c-0.1,0-0.2-0.1-0.3,0
	c-0.7,0-1.3,0.6-1.4,1.3c0,0,0,0,0,0c0,0,0,0.1,0,0.1v2.6h-0.7V7.8h0.7L194.2,8.6z"/>
<path class="st1" d="M197.7,7.8h0.7V6.4h0.7v1.5h0.9v0.6h-0.9v3c0,0.3,0.2,0.4,0.5,0.4c0.1,0,0.3,0,0.4-0.1h0v0.6
	c-0.2,0-0.4,0.1-0.6,0.1c-0.6,0-1-0.2-1-0.9V8.4h-0.7V7.8z"/>
<path class="st1" d="M201.4,8.4L201.4,8.4c0.4-0.5,0.9-0.7,1.5-0.7c0.8-0.1,1.5,0.4,1.6,1.2c0,0.1,0,0.2,0,0.3v3.3h-0.7V9.3
	c0-0.6-0.4-0.9-1.1-0.9c-0.7,0-1.3,0.5-1.3,1.2c0,0,0,0,0,0c0,0,0,0.1,0,0.1v2.9h-0.7V6h0.7L201.4,8.4z"/>
<path class="st1" d="M205.2,10.2c-0.1-1.3,0.8-2.3,2.1-2.4c0,0,0.1,0,0.1,0c1.4,0,2.1,1.1,2.1,2.6h-3.6c0.1,0.9,0.6,1.7,1.5,1.7
	c0.6,0.1,1.2-0.4,1.3-1h0.7c-0.2,1-1,1.6-2,1.6c-1.2,0-2.3-1-2.3-2.2c0,0,0,0,0,0C205.2,10.3,205.2,10.2,205.2,10.2 M206,9.8h2.8
	c0-0.9-0.5-1.5-1.4-1.5C206.5,8.3,206.1,8.9,206,9.8"/>
<path class="st1" d="M211.8,6h2.3c1.9,0,2.9,1.3,2.9,3.2s-1,3.2-2.9,3.2h-2.3V6z M214,11.8c1.5,0,2.1-1,2.1-2.5s-0.5-2.5-2.1-2.5
	h-1.5v5H214z"/>
<path class="st1" d="M217.6,10.2c-0.1-1.3,0.8-2.3,2.1-2.4c0,0,0.1,0,0.1,0c1.4,0,2.1,1.1,2.1,2.6h-3.6c0.1,0.9,0.6,1.7,1.5,1.7
	c0.6,0.1,1.2-0.4,1.3-1h0.7c-0.2,1-1,1.6-2,1.6c-1.2,0-2.3-1-2.3-2.2c0,0,0,0,0,0C217.6,10.3,217.6,10.2,217.6,10.2 M218.4,9.8h2.8
	c0-0.9-0.5-1.5-1.4-1.5C218.9,8.3,218.5,8.9,218.4,9.8"/>
<path class="st1" d="M225.5,11.8L225.5,11.8c-0.4,0.5-1,0.8-1.6,0.7c-0.9,0-1.6-0.4-1.6-1.3c0-1.1,0.9-1.3,2-1.5
	c0.7-0.1,1.1-0.2,1.1-0.7c0-0.5-0.4-0.8-1-0.8c-0.8,0-1.1,0.3-1.2,1h-0.7c0-0.9,0.6-1.6,1.9-1.6c1,0,1.7,0.4,1.7,1.5v2.2
	c0,0.4,0.1,0.6,0.5,0.5h0v0.5c-0.1,0.1-0.3,0.1-0.4,0.1C225.9,12.6,225.5,12.3,225.5,11.8C225.5,11.9,225.5,11.8,225.5,11.8
	 M225.5,10.8V10c-0.3,0.2-0.7,0.3-1.1,0.3c-0.7,0.1-1.3,0.3-1.3,0.9c0,0.6,0.5,0.8,1,0.8C224.8,12.1,225.5,11.5,225.5,10.8
	C225.5,10.8,225.5,10.8,225.5,10.8L225.5,10.8z"/>
<path class="st1" d="M226.9,7.8h0.6V7.1c0-0.8,0.5-1.1,1.2-1.1c0.2,0,0.3,0,0.4,0v0.6c-0.1,0-0.2,0-0.2,0c-0.5,0-0.6,0.1-0.6,0.5
	v0.7h0.9v0.6h-0.9v4.1h-0.7V8.4h-0.6V7.8z"/>
<path class="st1" d="M83.1,23.9c0-4.2,2.6-7.5,6.9-7.5c3.5,0,5.6,2.1,5.9,4.8H93c-0.2-1.5-1.5-2.5-3-2.4c-2.6,0-3.9,2.2-3.9,5
	c0,2.9,1.5,5,3.9,5c1.5,0.1,2.9-1,3.1-2.5h2.8c-0.1,1.3-0.6,2.5-1.6,3.4c-1.2,1.1-2.8,1.6-4.3,1.5C85.9,31.3,83.1,28.2,83.1,23.9"/>
<path class="st1" d="M96.8,25.9c-0.2-2.8,1.9-5.2,4.7-5.4c0.1,0,0.2,0,0.3,0c3.3,0,5.1,2.5,5.1,6.2h-7.4c0,1.4,1.1,2.6,2.5,2.6
	c0,0,0,0,0,0c0,0,0.1,0,0.1,0c0.9,0.1,1.7-0.4,2-1.3h2.7c-0.5,2.1-2.5,3.5-4.6,3.4c-2.8,0.1-5.2-2-5.3-4.8
	C96.7,26.3,96.8,26.1,96.8,25.9 M99.5,24.8h4.6c0-1.2-0.9-2.2-2.1-2.2h-0.1C100.6,22.5,99.5,23.5,99.5,24.8L99.5,24.8"/>
<path class="st1" d="M110.8,22.1L110.8,22.1c0.7-1.1,1.9-1.7,3.1-1.7c1.9,0,3.5,1.6,3.6,3.5c0,0,0,0,0,0c0,0.1,0,0.2,0,0.3V31h-2.7
	v-6.3c0.1-0.9-0.6-1.8-1.5-1.9c-0.1,0-0.2,0-0.3,0c-1.2,0-2.1,1-2.1,2.2c0,0.1,0,0.1,0,0.2V31h-2.7V20.7h2.7V22.1z"/>
<path class="st1" d="M118.3,20.7h1.4v-3.2h2.7v3.2h1.8v1.8h-1.8V28c-0.1,0.5,0.3,0.9,0.8,1c0.1,0,0.2,0,0.3,0c0.3,0,0.8,0,0.8,0v2
	c0,0-0.6,0-1.7,0c-1.3,0-2.8-0.5-2.8-2.5v-6h-1.4L118.3,20.7z"/>
<path class="st1" d="M125,25.9c-0.2-2.8,1.9-5.2,4.7-5.4c0.1,0,0.2,0,0.3,0c3.3,0,5.1,2.5,5.1,6.2h-7.4c0,1.4,1.1,2.6,2.5,2.6
	c0,0,0,0,0,0c0,0,0.1,0,0.1,0c0.9,0.1,1.7-0.4,2-1.3h2.7c-0.5,2.1-2.5,3.5-4.6,3.4c-2.8,0.1-5.2-2-5.3-4.8
	C124.9,26.3,125,26.1,125,25.9 M127.7,24.8h4.6c0-1.2-0.9-2.2-2.1-2.2c0,0,0,0,0,0h-0.1C128.8,22.5,127.7,23.5,127.7,24.8
	L127.7,24.8"/>
<path class="st1" d="M139,22.4L139,22.4c0.4-1.1,1.5-1.8,2.6-1.8c0.2,0,0.4,0,0.6,0.1v2.4h-0.1c-1.8-0.2-3.1,0.8-3.1,2.9v5h-2.7
	V20.7h2.6L139,22.4z"/>
<path class="st1" d="M146.2,25.9c0-3,2.3-5.4,5.3-5.4c3,0,5.4,2.3,5.4,5.3v0.1c0,3-2.3,5.4-5.3,5.4c-3,0-5.4-2.3-5.4-5.3V25.9
	 M154.2,25.9c0-2-0.9-3.4-2.6-3.4c-1.7,0-2.6,1.4-2.6,3.4s0.9,3.3,2.6,3.3C153.2,29.2,154.2,27.9,154.2,25.9"/>
<path class="st1" d="M160.9,22.1L160.9,22.1c0.7-1.1,1.9-1.7,3.1-1.7c1.9,0,3.5,1.6,3.6,3.5c0,0.1,0,0.2,0,0.3V31h-2.7v-6.3
	c0.1-0.9-0.6-1.8-1.5-1.9c-0.1,0-0.2,0-0.3,0c-1.2,0-2.1,1-2.1,2.2c0,0.1,0,0.1,0,0.2V31h-2.7V20.7h2.7L160.9,22.1z"/>
<path class="st1" d="M176.7,16.7h3l5,14.3h-3l-1-3h-5.2l-0.9,3h-2.9L176.7,16.7z M176.3,25.7h3.8l-1.3-4.1c-0.2-0.8-0.6-2.2-0.6-2.2
	h0c0,0-0.4,1.4-0.6,2.2L176.3,25.7z"/>
<path class="st1" d="M184.8,25.9c0-3.1,2-5.4,5.1-5.4c2.3-0.2,4.4,1.5,4.7,3.8h-2.7c-0.1-0.9-0.9-1.6-1.9-1.6
	c-1.6,0-2.5,1.3-2.5,3.2c0,1.9,0.8,3.2,2.4,3.2c1,0.1,2-0.7,2.1-1.7h2.6c-0.2,2.4-2.3,4.1-4.6,3.9c-2.8,0.1-5.2-2.1-5.3-4.9
	c0,0,0,0,0,0C184.8,26.2,184.8,26,184.8,25.9"/>
<path class="st1" d="M195.4,25.9c0-3.1,2-5.4,5.1-5.4c2.3-0.2,4.4,1.5,4.7,3.8h-2.7c-0.1-0.9-0.9-1.6-1.9-1.6
	c-1.6,0-2.5,1.3-2.5,3.2c0,1.9,0.8,3.2,2.4,3.2c1,0.1,2-0.7,2.1-1.7h2.6c-0.2,2.4-2.3,4.1-4.6,3.9c-2.8,0.1-5.2-2.1-5.3-4.9
	c0,0,0,0,0,0C195.4,26.2,195.4,26,195.4,25.9"/>
<path class="st1" d="M205.9,25.9c-0.2-2.8,1.9-5.2,4.7-5.4c0.1,0,0.2,0,0.3,0c3.3,0,5.1,2.5,5.1,6.2h-7.4c0,1.4,1.1,2.6,2.5,2.6
	c0,0,0,0,0,0c0,0,0.1,0,0.1,0c0.9,0.1,1.7-0.4,2-1.3h2.7c-0.5,2.1-2.5,3.5-4.6,3.4c-2.8,0.1-5.2-2-5.3-4.8
	C205.9,26.3,205.9,26.1,205.9,25.9 M208.7,24.8h4.6c0-1.2-0.9-2.2-2.1-2.2H211C209.8,22.5,208.7,23.5,208.7,24.8
	C208.7,24.7,208.7,24.7,208.7,24.8L208.7,24.8"/>
<path class="st1" d="M216.7,27.7h2.5c0.1,1.1,1.1,1.8,2.2,1.7c0,0,0,0,0,0c0,0,0,0,0,0c1.2,0,1.9-0.5,1.9-1.2c0-1-1.3-1.1-2.7-1.4
	c-1.8-0.4-3.6-0.9-3.6-3.1c0-2.2,1.8-3.3,4.2-3.3c2.7,0,4.2,1.3,4.4,3.4h-2.5c-0.1-1.1-0.8-1.5-2-1.5c-1.1,0-1.8,0.4-1.8,1.1
	c0,0.9,1.4,1,2.8,1.3c1.7,0.4,3.6,0.8,3.6,3.2c0,2.1-1.8,3.3-4.3,3.3C218.5,31.3,216.8,29.9,216.7,27.7"/>
<path class="st1" d="M226.4,27.7h2.5c0.1,1.1,1.1,1.8,2.2,1.7c0,0,0,0,0,0c0,0,0,0,0,0c1.2,0,1.9-0.5,1.9-1.2c0-1-1.3-1.1-2.7-1.4
	c-1.8-0.4-3.6-0.9-3.6-3.1c0-2.2,1.8-3.3,4.2-3.3c2.7,0,4.2,1.3,4.4,3.4h-2.5c-0.1-1.1-0.8-1.5-2-1.5c-1.1,0-1.8,0.4-1.8,1.1
	c0,0.9,1.4,1,2.8,1.3c1.7,0.4,3.6,0.8,3.6,3.2c0,2.1-1.8,3.3-4.3,3.3C228.2,31.3,226.5,29.9,226.4,27.7"/>
<polygon class="st1" points="239.6,16.7 251.1,16.7 251.1,19.1 246.8,19.1 246.8,31 243.9,31 243.9,19.1 239.6,19.1 "/>
<path class="st1" d="M249.5,25.9c-0.2-2.8,1.9-5.2,4.7-5.4c0.1,0,0.2,0,0.3,0c3.3,0,5.1,2.5,5.1,6.2h-7.4c0,1.4,1.1,2.6,2.5,2.6
	c0,0,0,0,0,0c0,0,0.1,0,0.1,0c0.9,0.1,1.7-0.4,2-1.3h2.7c-0.5,2.1-2.5,3.5-4.6,3.4c-2.8,0.1-5.2-2-5.3-4.8
	C249.5,26.3,249.5,26.1,249.5,25.9 M252.2,24.8h4.6c0-1.2-0.9-2.2-2.1-2.2h-0.1C253.3,22.5,252.3,23.5,252.2,24.8
	C252.2,24.7,252.2,24.7,252.2,24.8L252.2,24.8"/>
<path class="st1" d="M260.4,25.9c0-3.1,2-5.4,5.1-5.4c2.3-0.2,4.4,1.5,4.7,3.8h-2.7c-0.1-0.9-0.9-1.6-1.9-1.6
	c-1.6,0-2.5,1.3-2.5,3.2c0,1.9,0.8,3.2,2.4,3.2c1,0.1,2-0.7,2.1-1.7h2.6c-0.2,2.4-2.3,4.1-4.6,3.9c-2.8,0.1-5.2-2.1-5.3-4.9
	c0,0,0,0,0,0C260.4,26.2,260.4,26,260.4,25.9"/>
<path class="st1" d="M274.2,22.1L274.2,22.1c0.7-1.1,1.8-1.7,3-1.6c1.9,0,3.5,1.6,3.6,3.5c0,0.1,0,0.2,0,0.3V31H278v-6.3
	c0.1-0.9-0.6-1.8-1.5-1.9c-0.1,0-0.2,0-0.3,0c-1.2,0-2.1,1-2.1,2.2c0,0.1,0,0.1,0,0.2V31h-2.7V16.7h2.7L274.2,22.1z"/>
<path class="st1" d="M285.1,22.1L285.1,22.1c0.7-1.1,1.9-1.7,3.1-1.7c1.9,0,3.5,1.6,3.6,3.5c0,0,0,0,0,0c0,0.1,0,0.2,0,0.3V31H289
	v-6.3c0.1-0.9-0.6-1.8-1.5-1.9c-0.1,0-0.2,0-0.3,0c-1.2,0-2.1,1-2.1,2.2c0,0.1,0,0.1,0,0.2V31h-2.7V20.7h2.7L285.1,22.1z"/>
<path class="st1" d="M292.9,25.9c0-3,2.3-5.4,5.3-5.4c3,0,5.4,2.3,5.4,5.3v0.1c0,3-2.3,5.4-5.3,5.4c-3,0-5.4-2.3-5.4-5.3V25.9z
	 M300.9,25.9c0-2-0.9-3.4-2.6-3.4c-1.7,0-2.6,1.4-2.6,3.4s0.9,3.3,2.6,3.3C299.9,29.2,300.9,27.9,300.9,25.9"/>
<rect x="304.9" y="16.7" class="st1" width="2.7" height="14.3"/>
<path class="st1" d="M308.9,25.9c0-3,2.3-5.4,5.3-5.4c3,0,5.4,2.3,5.4,5.3v0.1c0,3-2.3,5.4-5.3,5.4c-3,0-5.4-2.3-5.4-5.3V25.9z
	 M316.9,25.9c0-2-0.9-3.4-2.6-3.4c-1.7,0-2.6,1.4-2.6,3.4s0.9,3.3,2.6,3.3C316,29.2,316.9,27.9,316.9,25.9"/>
<path class="st1" d="M320.6,31.3h2.7c0.2,0.6,0.8,1.1,2.1,1.1c1.5,0,2.3-0.7,2.3-2.1v-1.1h-0.1c-0.7,0.8-1.6,1.2-2.7,1.2
	c-2.5,0-4.6-2.1-4.5-4.7c0-0.1,0-0.1,0-0.2c0-3.1,1.8-5,4.4-5c1.1-0.1,2.2,0.5,2.8,1.4h0v-1.1h2.6v9.5c0.1,1.2-0.4,2.3-1.2,3.1
	c-1,0.8-2.4,1.2-3.7,1.2C322.6,34.5,320.9,33.3,320.6,31.3 M327.8,25.4c0-1.5-0.8-2.8-2.4-2.8c-1.4,0-2.3,1.1-2.3,2.8
	c0,1.7,0.9,2.8,2.3,2.8C327.1,28.2,327.8,26.9,327.8,25.4"/>
<path class="st1" d="M332.3,32.2h1c1.1,0,1.5-0.6,1.5-1.4c-0.1-1-0.4-1.9-0.8-2.8l-2.8-7.3h2.9l1.5,4.6c0.3,0.9,0.7,2.2,0.7,2.2h0
	c0,0,0.3-1.3,0.6-2.2l1.4-4.6h2.7l-3.6,10.5c-0.8,2.3-1.5,3.1-3.6,3.1h-1.6L332.3,32.2z"/>
</svg>
